<svg xmlns="http://www.w3.org/2000/svg" xmlns:xlink="http://www.w3.org/1999/xlink" viewBox="0 0 664.44 500"><defs><style>.cls-1{fill:#f7f7f7; fill-opacity: 0}.cls-2{fill:url(#linear-gradient);}.cls-3{fill:url(#linear-gradient-2);}.cls-4{fill:#6aafe8;}.cls-5{fill:url(#linear-gradient-3);}.cls-6{fill:url(#linear-gradient-4);}.cls-7{fill:url(#linear-gradient-5);}.cls-8{fill:url(#linear-gradient-6);}.cls-9{fill:url(#linear-gradient-7);}.cls-10{fill:#fff;}.cls-11{fill:url(#linear-gradient-8);}.cls-12{fill:url(#linear-gradient-9);}.cls-13{fill:url(#linear-gradient-10);}.cls-14{fill:url(#linear-gradient-11);}.cls-15{fill:#1487e3;}.cls-16{fill:#78c2ff;}.cls-17{fill:#ff7e55;}.cls-18{fill:#424773;}.cls-19{fill:#292c47;}.cls-20{fill:#eea886;}.cls-21{fill:#754836;}.cls-22{fill:#e2d2ca;}.cls-23{fill:#ffcb55;}.cls-24{fill:#a1d4ff;}.cls-25{fill:url(#linear-gradient-12);}.cls-26{fill:url(#linear-gradient-13);}.cls-27{fill:#4d78eb;}.cls-28{fill:#e0e0e0;}.cls-29{fill:#ff8761;}.cls-30{opacity:0.76;}.cls-31{fill:#4aafff;}.cls-32{fill:#1a598c;}.cls-33{fill:#2273b5;}.cls-34{fill:#3788cc;}.cls-35{fill:#414773;}.cls-36{fill:#2d314f;}.cls-37{fill:#2b3b57;}.cls-38{fill:#ffc655;}.cls-39{fill:#353a3d;}.cls-40{fill:#d4d8e8;}.cls-41{fill:#e55353;}.cls-42{fill:#6069a8;}.cls-43{fill:#202338;}.cls-44{fill:#464240;}.cls-45{fill:#eb4747;}.cls-46{fill:#325bb3;}.cls-47{fill:#a77860;}.cls-48{fill:#5e5853;}.cls-49{fill:#91887f;}.cls-50{fill:#eddad3;}.cls-51{fill:#6e6760;}.cls-52{fill:#807066;}</style><linearGradient id="linear-gradient" x1="176.01" y1="264.58" x2="476.44" y2="264.58" gradientTransform="translate(638.77 529.16) rotate(-180)" gradientUnits="userSpaceOnUse"><stop offset="0" stop-color="#40d5e6"/><stop offset="1" stop-color="#57f"/></linearGradient><linearGradient id="linear-gradient-2" x1="193.73" y1="251.28" x2="444.56" y2="251.28" gradientTransform="translate(638.29 502.56) rotate(-180)" gradientUnits="userSpaceOnUse"><stop offset="0" stop-color="#404b61"/><stop offset="0.49" stop-color="#3c4860"/><stop offset="1" stop-color="#2f3e5c"/></linearGradient><linearGradient id="linear-gradient-3" x1="524.73" y1="343.89" x2="589.27" y2="343.89" gradientUnits="userSpaceOnUse"><stop offset="0" stop-color="#3076a1"/><stop offset="1" stop-color="#639c38"/></linearGradient><linearGradient id="linear-gradient-4" x1="519.13" y1="334.48" x2="603.39" y2="334.48" xlink:href="#linear-gradient-3"/><linearGradient id="linear-gradient-5" x1="499.77" y1="321.74" x2="554.12" y2="321.74" xlink:href="#linear-gradient-3"/><linearGradient id="linear-gradient-6" x1="514.88" y1="333.49" x2="531.35" y2="333.49" xlink:href="#linear-gradient-3"/><linearGradient id="linear-gradient-7" x1="477.58" y1="336.75" x2="530.78" y2="336.75" xlink:href="#linear-gradient-3"/><linearGradient id="linear-gradient-8" x1="513.2" y1="457.29" x2="557.96" y2="283.22" xlink:href="#linear-gradient-3"/><linearGradient id="linear-gradient-9" x1="529.47" y1="367.06" x2="549.14" y2="367.06" xlink:href="#linear-gradient-3"/><linearGradient id="linear-gradient-10" x1="512.58" y1="402.52" x2="548.94" y2="402.52" gradientUnits="userSpaceOnUse"><stop offset="0" stop-color="#ff9340"/><stop offset="1" stop-color="#ffce45"/></linearGradient><linearGradient id="linear-gradient-11" x1="512.58" y1="402.52" x2="548.94" y2="402.52" gradientUnits="userSpaceOnUse"><stop offset="0" stop-color="#c97332"/><stop offset="1" stop-color="#ffce45"/></linearGradient><linearGradient id="linear-gradient-12" x1="319.43" y1="325.12" x2="319.43" y2="491.7" gradientTransform="matrix(1, 0, 0, 1, 0, 0)" xlink:href="#linear-gradient"/><linearGradient id="linear-gradient-13" x1="1.97" y1="450.68" x2="331.46" y2="450.68" gradientTransform="matrix(1, 0, 0, 1, 0, 0)" xlink:href="#linear-gradient"/></defs><title>Asset 2</title><g id="Layer_2" data-name="Layer 2"><g id="Слой_1" data-name="Слой 1"><rect class="cls-1" width="664.44" height="500"/><path class="cls-2" d="M184.17,164.42H454.6a0,0,0,0,1,0,0V355.26a9.47,9.47,0,0,1-9.47,9.47H193.65a9.47,9.47,0,0,1-9.47-9.47V164.42A0,0,0,0,1,184.17,164.42Z" transform="translate(638.77 529.16) rotate(180)"/><rect class="cls-3" x="193.73" y="174.23" width="250.83" height="154.09" transform="translate(638.29 502.56) rotate(180)"/><path class="cls-4" d="M167.38,174.95h-63.8l.11-.57A11.23,11.23,0,0,1,117,165.55a19.15,19.15,0,0,1,32.41-2.37A14,14,0,0,1,167.3,174.4Zm-62.63-1h61.5a13.11,13.11,0,0,0-12.77-10.47,13,13,0,0,0-4.1.66l-.34.11-.2-.29a18.2,18.2,0,0,0-31.15,2.3l-.17.34-.37-.09a10.18,10.18,0,0,0-2.44-.3A10.29,10.29,0,0,0,104.76,174Z"/><path class="cls-4" d="M401.7,96.41l-.22-.11c-22.64-11.56-19.6-33.95-19.57-34.17l.06-.41h.41c14.4,0,18.92-4.64,19-4.69l.35-.37.35.37s4.57,4.68,19,4.68h.41l.06.41c0,.22,3.07,22.61-19.57,34.17ZM382.82,62.67c-.29,3-1.24,22.25,18.88,32.67,20.13-10.42,19.17-29.63,18.89-32.67C408.09,62.6,403,59.11,401.7,58,400.4,59.11,395.31,62.6,382.82,62.67Z"/><path class="cls-5" d="M525.59,393.94c-3.41-15.57,4-19.46,11.08-23.22,5.82-3.07,11.32-6,11-15.15-.39-12.17,7.9-16.59,15.21-20.5,5.44-2.91,10.58-5.65,11.35-11.19,1.84-13.32,14.13-29.88,14.26-30l.76.57c-.12.16-12.26,16.53-14.08,29.61-.83,6-6.18,8.87-11.84,11.9-7.41,4-15.08,8.05-14.71,19.63.31,9.77-5.71,13-11.53,16-7.12,3.76-13.84,7.31-10.59,22.17Z"/><path class="cls-6" d="M529.33,390l-.49,0c-3.08-.23-6.1-2.57-9.5-7.36l-.21-.3.24-.28c.05-.07,5.51-6.71,3.51-19.19a58.38,58.38,0,0,0-1.59-6.93c-.73-2.61-1.22-4.34-.41-5.71,1-1.75,3.81-2.66,11.64-4.53,8.34-2,11.12-11.38,13.58-19.67,2.32-7.81,4.51-15.17,11-14.94,6,.23,15-9.11,23-17.35,7.41-7.64,14.41-14.84,18.88-14.7a3.57,3.57,0,0,1,2.69,1.34c4,4.75.27,12-3.33,18.92-3.07,5.94-6,11.56-4.1,15.26,2.35,4.65,2.67,8.86.95,12.17-2,3.92-6.79,6.45-14.13,7.51-6.71,1-7.44,8.29-8.2,16-.9,9-1.91,19.29-13.17,20.27-8.36.72-14,6.59-19,11.77C536.75,386.39,533.31,390,529.33,390Zm-9-7.64c3.1,4.29,5.91,6.48,8.59,6.68,3.74.28,7.15-3.28,11.1-7.39,5.09-5.3,10.86-11.31,19.58-12.06,10.47-.91,11.4-10.31,12.31-19.41.81-8.13,1.57-15.81,9-16.89,7-1,11.54-3.37,13.43-7,1.58-3,1.25-6.94-1-11.3-2.08-4.14.92-10,4.11-16.13,3.46-6.69,7-13.61,3.45-17.87a2.62,2.62,0,0,0-2-1c-4-.13-10.9,6.92-18.16,14.41C572.37,303,563.67,312,557.3,312h-.24c-5.75-.21-7.75,6.49-10,14.26-2.53,8.54-5.4,18.21-14.28,20.32-7.08,1.69-10.18,2.63-11,4.08-.61,1-.19,2.51.5,5a59.33,59.33,0,0,1,1.62,7C525.67,374.26,521.4,380.88,520.32,382.33Z"/><path class="cls-7" d="M529.68,386.71l-.33,0c-5.05-.46-8.94-11.53-12.69-22.23a106.49,106.49,0,0,0-5.1-12.95c-1.27-2.39-2.89-4.88-4.45-7.28-4.16-6.41-8.46-13-7.06-18.86.74-3.06,2.93-5.61,6.71-7.79,8.28-4.77,7-7.46,4.21-13.37-2-4.33-4.85-10.26-5-19.6,0-4-.14-7.48-.22-10.54-.26-9.84-.4-14.78,1.71-16.57.87-.74,2.09-.93,3.83-.6,3,.57,4.27,3,5.63,5.52,1.74,3.25,3.71,6.93,9.67,8.18,5.59,1.17,11,2.76,12.44,6.48,1,2.61.06,6-3,10.5a3.41,3.41,0,0,0-.78,2.81c.49,1.79,3.27,3.09,6.49,4.6,4.59,2.14,10.29,4.8,11.91,10.32,1.3,4.45-.21,10-4.61,17-10.42,16.47-10,27.64-9.63,37.49.27,7.3.53,14.2-3.87,21.9C533.62,385.05,531.69,386.71,529.68,386.71Zm-19.85-129a2.55,2.55,0,0,0-1.72.53c-1.75,1.49-1.62,6.58-1.37,15.81.08,3.06.17,6.54.22,10.56.11,9.13,2.86,15,4.87,19.21,2.77,5.86,4.44,9.39-4.6,14.6-3.54,2-5.59,4.39-6.26,7.18-1.3,5.42,2.89,11.87,6.94,18.12,1.57,2.42,3.2,4.93,4.49,7.35a106.91,106.91,0,0,1,5.16,13.08c3.49,9.93,7.44,21.19,11.88,21.59,1.7.15,3.48-1.38,5.3-4.57,4.27-7.47,4-13.92,3.75-21.4-.37-10-.8-21.32,9.78-38,4.25-6.72,5.72-12,4.5-16.17-1.5-5.1-6.76-7.56-11.4-9.72-3.44-1.6-6.41-3-7-5.21a4.28,4.28,0,0,1,.92-3.6c2.88-4.17,3.83-7.31,2.92-9.6-1.32-3.3-6.68-4.83-11.75-5.9-6.39-1.34-8.56-5.4-10.31-8.66-1.31-2.44-2.44-4.55-5-5A7.08,7.08,0,0,0,509.83,257.71Z"/><path class="cls-8" d="M529.78,392.62l-.91-.29c5.09-16.09-4.12-52.21-6.86-61-1.35-4.32-.1-10.83,1.1-17.12,1.56-8.12,3.17-16.53-.94-19.68-7.71-5.92-7.31-19.6-7.29-20.18l1,0c0,.14-.41,13.77,6.92,19.39,4.58,3.51,2.91,12.2,1.29,20.61-1.18,6.18-2.41,12.56-1.13,16.65C526.31,341.92,534.86,376.56,529.78,392.62Z"/><path class="cls-9" d="M491.27,288.07c-2.12-5.38-10.4-4.56-9.64,3s6.09,15.73-2,28.66,10.4,15.47,17,23.59,8.88,19.28,14.46,26.38,9.38,24.1,13.95,17.75.27-14.59.78-26,10.67-18.64.51-26-20.38-9.61-17-26.2C510.74,302,497.86,304.81,491.27,288.07Z"/><path class="cls-10" d="M532.39,389c-.06-.34-5.7-33.77-18.33-42.93-12.88-9.34-15.22-18-19.72-38.33l.93-.2c4.44,20.1,6.75,28.62,19.34,37.76,12.95,9.39,18.48,42.16,18.71,43.55Z"/><path class="cls-11" d="M521,387.77s3.75-9.28-3.08-22.47S505.56,354.14,522,344s.1-42.11,14.12-46.17S562.33,242,573,248.62s-3.55,32,4.06,39.56,8.63,17.29-7.1,25.14,11.16,37.78-10.15,46.91S544.6,405.17,521,387.77Z"/><path class="cls-10" d="M527.51,397.61c0-.12-2.32-12,4.92-27.35,7.37-15.64,10.91-32.74,9.44-45.74-.79-7,3.72-9.79,8.08-12.46s8.73-5.33,8.49-12.27c-.22-6.27,2.43-21,2.54-21.58l.94.17c0,.15-2.75,15.21-2.53,21.37.26,7.49-4.42,10.35-8.95,13.12-4.3,2.62-8.35,5.1-7.63,11.54,1.48,13.17-2.08,30.46-9.53,46.25-7.1,15-4.88,26.64-4.85,26.76Z"/><path class="cls-10" d="M544.73,332c4.79-4.44,11.11-5.08,9.79,1.51s-5.84,8.48-3.58,12.62,6,8.29-.38,13.37-10,5.65-11.87,15.26-1.51,16.17-9.8,16.58-5.09-11.68-2.45-17.14a18.12,18.12,0,0,0,1.32-14.42c-2.64-8.19-7.72-12.61,3-15.39S541.5,335,544.73,332Z"/><path class="cls-12" d="M529.5,397.53c0-1.18-.6-28.85,4.58-33.51s6.3-13.16,6.44-17.75c.18-6,7.9-9.53,8.23-9.67l.39.87c-.08,0-7.51,3.45-7.67,8.83-.17,5.79-1.48,13.69-6.75,18.43-4.85,4.37-4.27,32.5-4.26,32.78Z"/><polygon class="cls-13" points="548.94 386.23 540.36 418.81 521.17 418.81 512.58 386.23 548.94 386.23"/><path class="cls-14" d="M548.94,386.23S530,389.78,530,418.81h-8.87l-8.59-32.58Z"/><rect class="cls-15" x="185.4" y="301.11" width="25.27" height="2.86"/><polygon class="cls-16" points="180.12 222.16 139.78 222.16 139.78 170.57 140.74 170.57 140.74 221.2 180.12 221.2 180.12 222.16"/><polygon class="cls-16" points="350.85 188.17 349.89 188.17 349.89 134.98 401.22 134.98 401.22 90.25 402.18 90.25 402.18 135.93 350.85 135.93 350.85 188.17"/><polygon class="cls-16" points="516.67 247.42 463.26 247.42 463.26 246.46 515.72 246.46 515.72 215.45 516.67 215.45 516.67 247.42"/><path class="cls-17" d="M117.39,290.51s-1.14,16,2,18c2,1.2,9.79,5.26,9.56,6s-4.42,6.77-4.42,6.77-15-9.91-15.53-13,.74-23.5,2.81-24.44c1.55-.71,2.37-.12,4.32,1.33C118.86,287.17,117.39,290.51,117.39,290.51Z"/><path class="cls-18" d="M115.64,407.29s-.47,3.25-.53,3.73-5.2-.29-5.2-.29l-.42-3.87S115,406.83,115.64,407.29Z"/><path class="cls-19" d="M115.17,410.61a13.86,13.86,0,0,0,3.21,2.81c1.58.85,4.05,1.19,5,2.07.67.64,2.45,3.38-4.1,3.32s-9.71.39-10.41-.66,1-7.76,1-7.76S111.42,410.95,115.17,410.61Z"/><path class="cls-18" d="M141.39,407.29s-.47,3.25-.53,3.73-5.2-.29-5.2-.29l-.42-3.87S140.74,406.83,141.39,407.29Z"/><path class="cls-19" d="M140.91,410.61a13.88,13.88,0,0,0,3.21,2.81c1.58.85,7.38,1.55,8.31,2.44.67.64,1.79,3.2-7.42,3-6.55-.17-9.71.39-10.41-.66s1-7.76,1-7.76S137.08,411,140.91,410.61Z"/><path class="cls-19" d="M117.48,323.86s-4.83,7.68-4.47,14.62-.43,14.36-1.16,21.61c-.81,8.09-3,24.91-3.13,29.24s.16,20.6.16,20.6l8.39-.06s3-32.88,4.42-36.29,7.36-28.12,7.6-30.85S117.48,323.86,117.48,323.86Z"/><path class="cls-19" d="M142.93,324.9s1.91,18.87,2.39,23.12.15,22.66.39,25.32-1.61,30.75-2.06,36.1l-9.22-.06s-.64-22.72-.64-33.76-2.83-23.89-6.08-31.18S117,337,115,323.47C115,323.47,140.23,320.62,142.93,324.9Z"/><path class="cls-20" d="M122.59,259.1s5.76-3.85,9.8.27,6,13.81,3.13,15.75-7.83,2.44-10.17-.18-4.84-6.63-5.45-9.55S121.13,260.33,122.59,259.1Z"/><path class="cls-20" d="M133.56,275.78s-.08,4,.37,4.91-8.41.89-8.41.89a58.25,58.25,0,0,0-2.08-8.66C122.08,268.95,133.56,275.78,133.56,275.78Z"/><path class="cls-21" d="M123.67,272.85s.83.84,3.16-.11,4.54-4.88,5.47-5.47.8-1.19.8-1.19l.85.78,1.09-.19s-1.66-2.66-.46-4.18-3.74-9-10.89-4.43c0,0-5.59,3.06-4.57,6.41S121.93,271.47,123.67,272.85Z"/><path class="cls-22" d="M134.46,280.58s0-1.65-.78-1.81-8.25-.88-9.17-.52v1.92S126.29,281.27,134.46,280.58Z"/><path class="cls-20" d="M132.65,264.87c-.27-.54-2.11-1.83-2.25,0s1.8,3.9,2.54,3.51S133.33,266.24,132.65,264.87Z"/><path class="cls-21" d="M120.92,260.09s-8.24,2.21,2.41,12.44Z"/><path class="cls-20" d="M194.52,303.89l-8.39-.08c.72-.42,1.9-1.18,1.64-1.53s-2.75.59-3.71.69a14.15,14.15,0,0,0-3.5.39l-2.65,1.13,2.43,2.25s4.39.63,5.68.72c2.09.15,8.48-2.34,8.59-2.72C194.79,304.06,194.52,303.89,194.52,303.89Z"/><path class="cls-17" d="M145.42,282.87c-5.34-.94-11-2.29-11-2.29l-9.94-.41s-9.12,2-12.72,3.63c-.34.15-.34,8.14-1.28,10.24l3,6.29s1.72,12.45,2.08,18c.16,2.54-3.55,23.84-3.55,23.84a68.67,68.67,0,0,0,10.77,1.92c6.79.75,23.74-.27,23.85-1.07s-3.28-29.84-3.43-31.35c-.23-2.31.67-13,.67-13,1.28,1.72,8.67,8.16,12.28,10.21,2.57,1.46,8.86.57,10.72.38,4-.41,15.1-1.2,15.32-1.6.17-.24-.64-4.28-1.1-4.43s-14.72-.84-18.31-.66c-1.46.08-6.21-5.23-6.21-5.23S148.36,284.19,145.42,282.87Z"/><polygon class="cls-23" points="84.27 242.68 110.55 242.68 110.55 261.73 110.55 265.74 106.54 261.73 84.27 261.73 84.27 242.68"/><path class="cls-4" d="M507.5,182.05H482V156.52H507.5Zm-24.68-.85h23.83V157.37H482.82Z"/><path class="cls-4" d="M571.06,165.88H512.61v-6.24h58.45Zm-57.6-.85H570.2v-4.54H513.46Z"/><path class="cls-4" d="M571.06,194.91H482v-6.24h89.09Zm-88.24-.85H570.2v-4.54H482.82Z"/><path class="cls-4" d="M538.71,206.89H482v-6.24h56.74ZM482.82,206h55V201.5h-55Z"/><path class="cls-4" d="M552.19,177.79H512.61v-6.24h39.58Zm-38.73-.85h37.88V172.4H513.46Z"/><path class="cls-4" d="M581.2,220.47H471.83V142.94H581.2Zm-108.52-.85H580.35V143.79H472.68Z"/><polygon class="cls-4" points="433.26 108.22 425.08 108.22 425.08 107.27 432.31 107.27 432.31 100.04 433.26 100.04 433.26 108.22"/><polygon class="cls-4" points="378.23 108.22 370.05 108.22 370.05 100.04 371 100.04 371 107.27 378.23 107.27 378.23 108.22"/><polygon class="cls-4" points="371.01 53.2 370.05 53.2 370.05 45.01 378.23 45.01 378.23 45.97 371.01 45.97 371.01 53.2"/><polygon class="cls-4" points="433.26 53.19 432.31 53.19 432.31 45.97 425.08 45.97 425.08 45.02 433.26 45.02 433.26 53.19"/><rect class="cls-4" x="432.31" y="65.41" width="0.95" height="22.41"/><rect class="cls-4" x="370.05" y="65.41" width="0.96" height="22.41"/><path class="cls-16" d="M140.26,171.05a3.5,3.5,0,1,1,3.5-3.5A3.51,3.51,0,0,1,140.26,171.05Zm0-6.05a2.55,2.55,0,1,0,2.55,2.55A2.55,2.55,0,0,0,140.26,165Z"/><path class="cls-16" d="M401.7,90.72a3.5,3.5,0,1,1,3.5-3.5A3.51,3.51,0,0,1,401.7,90.72Zm0-6.05a2.55,2.55,0,1,0,2.55,2.55A2.55,2.55,0,0,0,401.7,84.67Z"/><path class="cls-16" d="M516.19,216.09a3.5,3.5,0,1,1,3.5-3.5A3.51,3.51,0,0,1,516.19,216.09Zm0-6.05a2.55,2.55,0,1,0,2.55,2.55A2.55,2.55,0,0,0,516.19,210Z"/><path class="cls-24" d="M163.49,73.79h-24v-24h24Zm-23.09-1h22.13V50.7H140.4Z"/><rect class="cls-24" x="150.99" y="56.3" width="0.95" height="11.21"/><rect class="cls-24" x="145.87" y="61.43" width="11.21" height="0.95"/><path class="cls-24" d="M529.88,102.79H495.51V78.26h34.37Zm-33.41-1h32.46V79.21H496.46Z"/><polygon class="cls-24" points="512.69 93.12 495.68 79.1 496.29 78.37 512.69 91.88 529.1 78.37 529.7 79.1 512.69 93.12"/><rect class="cls-24" x="522.76" y="86.85" width="0.95" height="17.92" transform="translate(77.67 386.38) rotate(-43.49)"/><rect class="cls-24" x="493.19" y="95.34" width="17.92" height="0.95" transform="translate(87.28 394.51) rotate(-46.56)"/><path class="cls-24" d="M223.49,127.44l-.36-.93a5.07,5.07,0,0,1-.94-.22l-.73.68-2.12-1.51.41-.91a5,5,0,0,1-.51-.82l-1,0-.43-2.56.93-.36a5,5,0,0,1,.22-.94l-.68-.73,1.51-2.12.91.41a5.06,5.06,0,0,1,.82-.51l0-1,2.56-.43.36.93a5.08,5.08,0,0,1,.94.22l.73-.68,2.12,1.51-.41.91a5,5,0,0,1,.51.82l1,0,.43,2.56-.93.36a5.16,5.16,0,0,1-.22.94l.69.73-1.51,2.12-.91-.41a5,5,0,0,1-.82.51l0,1Zm-1.46-2,.21.08a4.34,4.34,0,0,0,1.19.27l.22,0,.31.8,1.41-.24,0-.86.21-.09a4.36,4.36,0,0,0,1-.64l.17-.14.78.35.83-1.16-.59-.62.08-.21a4.33,4.33,0,0,0,.27-1.19l0-.22.8-.31-.24-1.41-.86,0-.09-.2a4.36,4.36,0,0,0-.64-1l-.14-.17.35-.78-1.16-.83-.63.59-.21-.08a4.36,4.36,0,0,0-1.18-.27l-.22,0-.31-.8-1.41.24,0,.86-.21.09a4.36,4.36,0,0,0-1,.64l-.17.14-.78-.35-.83,1.16.59.63-.08.21a4.36,4.36,0,0,0-.27,1.19l0,.22-.8.31.24,1.41.86,0,.09.2a4.35,4.35,0,0,0,.65,1l.14.17-.35.78,1.16.83Zm1.77-1.19a2.83,2.83,0,1,1,.48,0A2.89,2.89,0,0,1,223.79,124.27Zm0-4.94a2.11,2.11,0,0,0-1.23,3.83h0a2.11,2.11,0,1,0,1.23-3.83Z"/><path class="cls-24" d="M203.63,130.43l-.8-2.09a11.34,11.34,0,0,1-2.51-.57l-1.63,1.53-4.42-3.15.91-2a11.37,11.37,0,0,1-1.36-2.18l-2.23-.07-.9-5.35,2.09-.8a11.32,11.32,0,0,1,.57-2.51l-1.53-1.63,3.14-4.42,2,.91a11.33,11.33,0,0,1,2.18-1.36l.07-2.23,5.35-.9.8,2.09a11.38,11.38,0,0,1,2.51.57l1.63-1.53,4.42,3.15-.91,2a11.35,11.35,0,0,1,1.36,2.18l2.23.07.9,5.35-2.09.8a11.32,11.32,0,0,1-.58,2.51l1.53,1.63-3.15,4.42-2-.91a11.33,11.33,0,0,1-2.18,1.36l-.07,2.23Zm-3.53-3.76.28.11a10.39,10.39,0,0,0,2.83.65l.3,0,.73,1.91,3.81-.64.06-2,.27-.12a10.37,10.37,0,0,0,2.46-1.54l.23-.19,1.87.83,2.24-3.15-1.4-1.49.11-.28a10.38,10.38,0,0,0,.65-2.83l0-.3,1.91-.73-.64-3.81-2-.06-.12-.27a10.41,10.41,0,0,0-1.54-2.46l-.19-.23.83-1.87-3.15-2.24-1.49,1.4-.28-.11a10.43,10.43,0,0,0-2.83-.65l-.3,0-.73-1.91-3.81.64-.07,2-.27.12a10.4,10.4,0,0,0-2.46,1.54l-.23.19-1.87-.83-2.24,3.15,1.4,1.49-.11.28a10.41,10.41,0,0,0-.65,2.83l0,.3-1.91.73.64,3.81,2,.06.12.27a10.39,10.39,0,0,0,1.54,2.46l.19.23-.83,1.87,3.15,2.24Zm4-3.5a6.17,6.17,0,1,1,5-2.59A6.14,6.14,0,0,1,204.11,123.17Zm0-11.38a5.21,5.21,0,1,0,3,1A5.21,5.21,0,0,0,204.13,111.78Z"/><path class="cls-16" d="M78.84,135.44A17.81,17.81,0,0,1,61,117.65h1a16.84,16.84,0,1,0,16.84-16.84v-1a17.79,17.79,0,0,1,0,35.59Zm0-2.47a15.32,15.32,0,1,1,15.32-15.32h-1A14.37,14.37,0,1,0,78.84,132Z"/><polygon class="cls-16" points="76.66 123.55 70.24 117.13 70.91 116.45 76.66 122.2 86.76 112.09 87.43 112.77 76.66 123.55"/><polygon class="cls-25" points="454.59 335.81 319.43 335.81 184.27 335.81 154.69 446.38 320.31 446.38 484.17 446.38 454.59 335.81"/><path class="cls-10" d="M194.49,355.21H211.1a1,1,0,0,1,1.09,1.12l-1.61,7.22a1.08,1.08,0,0,1-1.09.77H192.6a1,1,0,0,1-1.08-1.15l1.89-7.22A1.08,1.08,0,0,1,194.49,355.21Z"/><polygon class="cls-10" points="218.72 355.21 231.27 355.21 229.6 364.32 216.81 364.32 218.72 355.21"/><polygon class="cls-10" points="237.55 355.21 250.11 355.21 248.79 364.32 236 364.34 237.55 355.21"/><polygon class="cls-10" points="256.38 355.21 268.94 355.21 267.99 364.32 255.19 364.32 256.38 355.21"/><polygon class="cls-10" points="275.22 355.21 287.77 355.21 287.18 364.32 274.38 364.32 275.22 355.21"/><polygon class="cls-10" points="294.05 355.21 306.61 355.21 306.37 364.32 293.57 364.34 294.05 355.21"/><polygon class="cls-10" points="444.76 355.21 425.93 355.21 427.96 364.32 447.15 364.32 444.76 355.21"/><polygon class="cls-10" points="419.65 355.21 407.1 355.21 408.77 364.32 421.56 364.32 419.65 355.21"/><polygon class="cls-10" points="400.82 355.21 388.26 355.21 389.58 364.32 402.37 364.34 400.82 355.21"/><polygon class="cls-10" points="381.99 355.21 369.43 355.21 370.38 364.32 383.18 364.32 381.99 355.21"/><polygon class="cls-10" points="363.15 355.21 350.6 355.21 351.19 364.32 363.99 364.32 363.15 355.21"/><polygon class="cls-10" points="344.32 355.21 331.76 355.21 332 364.32 344.8 364.34 344.32 355.21"/><polygon class="cls-10" points="312.89 355.21 325.44 355.21 325.65 364.32 312.89 364.32 312.89 355.21"/><polygon class="cls-10" points="188.97 371.12 215.21 371.12 213.71 380.52 186.98 380.52 188.97 371.12"/><polygon class="cls-10" points="448.86 371.12 416.43 371.12 418.28 380.52 451.32 380.52 448.86 371.12"/><polygon class="cls-10" points="409.94 371.12 396.97 371.12 398.45 380.52 411.67 380.52 409.94 371.12"/><polygon class="cls-10" points="390.49 371.12 377.51 371.12 378.62 380.52 391.84 380.52 390.49 371.12"/><polygon class="cls-10" points="371.03 371.12 358.05 371.12 358.79 380.52 372.01 380.52 371.03 371.12"/><polygon class="cls-10" points="351.57 371.12 338.6 371.12 338.96 380.52 352.18 380.52 351.57 371.12"/><polygon class="cls-10" points="185.05 387.88 211.87 387.88 209.92 397.21 182.6 397.21 185.05 387.88"/><polygon class="cls-10" points="218.58 387.88 231.99 387.88 230.4 397.21 216.74 397.21 218.58 387.88"/><polygon class="cls-10" points="238.7 387.88 252.11 387.88 339.27 387.88 339.65 397.21 237.23 397.21 238.7 387.88"/><polygon class="cls-10" points="345.99 387.88 359.4 387.88 360.13 397.21 346.48 397.21 345.99 387.88"/><polygon class="cls-10" points="366.11 387.88 379.52 387.88 380.62 397.21 366.96 397.21 366.11 387.88"/><polygon class="cls-10" points="386.22 387.88 399.63 387.88 401.1 397.21 387.44 397.21 386.22 387.88"/><polygon class="cls-10" points="406.34 387.88 419.75 387.88 421.58 397.21 407.93 397.21 406.34 387.88"/><polygon class="cls-10" points="426.46 387.88 453.28 387.88 455.73 397.21 428.41 397.21 426.46 387.88"/><polygon class="cls-10" points="332.14 371.12 319.27 371.12 319.27 380.52 332.38 380.52 332.14 371.12"/><polygon class="cls-10" points="312.68 371.12 299.71 371.12 299.33 380.52 312.55 380.52 312.68 371.12"/><polygon class="cls-10" points="293.22 371.12 280.25 371.12 279.51 380.52 292.73 380.52 293.22 371.12"/><polygon class="cls-10" points="273.76 371.12 260.79 371.12 259.68 380.52 272.9 380.52 273.76 371.12"/><polygon class="cls-10" points="254.3 371.12 241.33 371.12 239.85 380.52 253.07 380.52 254.3 371.12"/><polygon class="cls-10" points="234.84 371.12 221.87 371.12 220.02 380.52 233.24 380.52 234.84 371.12"/><polygon class="cls-10" points="195.11 349.48 197.24 341.35 203.33 341.35 201.34 349.48 195.11 349.48"/><polygon class="cls-10" points="209.43 341.35 221.62 341.35 219.92 349.48 207.51 349.48 209.43 341.35"/><polygon class="cls-10" points="227.72 341.35 239.91 341.35 238.53 349.48 226.12 349.48 227.72 341.35"/><polygon class="cls-10" points="246.01 341.35 258.2 341.35 257.13 349.48 244.73 349.48 246.01 341.35"/><polygon class="cls-10" points="264.3 341.35 276.49 341.35 275.74 349.48 263.34 349.48 264.3 341.35"/><polygon class="cls-10" points="282.59 341.35 294.78 341.35 294.35 349.48 281.95 349.48 282.59 341.35"/><polygon class="cls-10" points="300.88 341.35 313.07 341.35 312.96 349.48 300.56 349.48 300.88 341.35"/><polygon class="cls-10" points="319.16 341.35 331.36 341.35 331.57 349.48 319.16 349.48 319.16 341.35"/><polygon class="cls-10" points="337.45 341.35 349.65 341.35 350.18 349.48 337.77 349.48 337.45 341.35"/><polygon class="cls-10" points="355.74 341.35 367.94 341.35 368.79 349.48 356.38 349.48 355.74 341.35"/><polygon class="cls-10" points="374.03 341.35 386.22 341.35 387.4 349.48 374.99 349.48 374.03 341.35"/><polygon class="cls-10" points="392.32 341.35 404.51 341.35 406 349.48 393.6 349.48 392.32 341.35"/><polygon class="cls-10" points="410.61 341.35 422.8 341.35 424.61 349.48 412.21 349.48 410.61 341.35"/><polygon class="cls-10" points="428.9 341.35 441.09 341.35 443.22 349.48 430.82 349.48 428.9 341.35"/><path class="cls-26" d="M475.56,455H163.29a8.61,8.61,0,0,1-8.61-8.61H484.17A8.61,8.61,0,0,1,475.56,455Z"/><path class="cls-27" d="M357.73,410.65a4,4,0,0,0-4-3.37H285.1a4,4,0,0,0-4,3.37l-4.29,26a4,4,0,0,0,4,4.69H358a4,4,0,0,0,4-4.69Z"/><rect class="cls-28" x="210.67" y="187.31" width="27.94" height="2.86"/><rect class="cls-28" x="246.43" y="208.85" width="20.17" height="2.86"/><rect class="cls-15" x="269.75" y="208.85" width="13.39" height="2.86"/><rect class="cls-15" x="210.98" y="263.03" width="13.39" height="2.86"/><rect class="cls-28" x="285.78" y="208.85" width="32.32" height="2.86"/><rect class="cls-28" x="210.98" y="252.18" width="20.77" height="2.86"/><rect class="cls-28" x="239.94" y="273.8" width="12.68" height="2.86"/><rect class="cls-15" x="210.98" y="273.8" width="25.12" height="2.86"/><rect class="cls-28" x="210.98" y="284.57" width="13.86" height="2.86"/><rect class="cls-16" x="244.05" y="187.31" width="19.84" height="2.86"/><rect class="cls-15" x="244.05" y="219.62" width="19.84" height="2.86"/><rect class="cls-28" x="234.13" y="230.4" width="8.48" height="2.86"/><rect class="cls-16" x="225.65" y="241.33" width="19.04" height="2.86"/><rect class="cls-15" x="247.57" y="241.33" width="26.28" height="2.86"/><rect class="cls-15" x="210.98" y="230.48" width="19.84" height="2.86"/><rect class="cls-15" x="210.98" y="241.33" width="11.77" height="2.86"/><rect class="cls-29" x="246.6" y="230.48" width="11.1" height="2.86"/><rect class="cls-29" x="211.32" y="295.35" width="11.1" height="2.86"/><rect class="cls-16" x="210.91" y="208.85" width="19.84" height="2.86"/><rect class="cls-16" x="228.45" y="263.03" width="19.84" height="2.86"/><rect class="cls-16" x="228.69" y="284.57" width="19.84" height="2.86"/><rect class="cls-16" x="263.93" y="284.57" width="19.84" height="2.86"/><rect class="cls-16" x="210.91" y="219.62" width="28.28" height="2.86"/><rect class="cls-16" x="343.41" y="187.31" width="19.84" height="2.86"/><rect class="cls-16" x="272.75" y="295.35" width="19.84" height="2.86"/><rect class="cls-16" x="369.42" y="187.31" width="13.28" height="2.86"/><rect class="cls-16" x="414.35" y="198.08" width="13.28" height="2.86"/><rect class="cls-15" x="269.22" y="187.31" width="25.27" height="2.86"/><rect class="cls-15" x="367.69" y="198.08" width="25.27" height="2.86"/><rect class="cls-15" x="336.7" y="208.85" width="25.27" height="2.86"/><rect class="cls-15" x="303.8" y="219.62" width="25.27" height="2.86"/><rect class="cls-16" x="365.15" y="208.85" width="17.97" height="2.86"/><rect class="cls-29" x="313.19" y="187.31" width="25.27" height="2.86"/><rect class="cls-29" x="284.35" y="219.62" width="14.82" height="2.86"/><rect class="cls-29" x="272.75" y="263.19" width="14.82" height="2.86"/><rect class="cls-28" x="299.17" y="187.31" width="9.25" height="2.86"/><rect class="cls-28" x="269.22" y="219.62" width="9.25" height="2.86"/><rect class="cls-28" x="399.06" y="198.08" width="9.25" height="2.86"/><rect class="cls-15" x="210.67" y="198.08" width="14.47" height="2.86"/><rect class="cls-15" x="249.28" y="252.26" width="11.43" height="2.86"/><rect class="cls-15" x="228.69" y="198.08" width="4.67" height="2.86"/><rect class="cls-28" x="324.63" y="198.08" width="38.62" height="2.86"/><rect class="cls-28" x="287.57" y="284.57" width="38.63" height="2.86"/><rect class="cls-29" x="236.8" y="198.08" width="4.77" height="2.86"/><rect class="cls-15" x="308.42" y="198.08" width="12.64" height="2.86"/><rect class="cls-29" x="321.06" y="208.85" width="12.64" height="2.86"/><rect class="cls-29" x="256.08" y="295.35" width="12.64" height="2.86"/><rect class="cls-15" x="278.19" y="198.08" width="26.89" height="2.86"/><rect class="cls-15" x="253.16" y="263.19" width="15.71" height="2.86"/><rect class="cls-15" x="252.15" y="284.57" width="7.86" height="2.86"/><rect class="cls-16" x="265.12" y="198.08" width="9.25" height="2.86"/><rect class="cls-29" x="233.99" y="208.85" width="9.25" height="2.86"/><rect class="cls-29" x="235.83" y="252.26" width="9.25" height="2.86"/><rect class="cls-15" x="245.48" y="198.08" width="16.12" height="2.86"/><g class="cls-30"><rect class="cls-10" x="360.58" y="223.2" width="124.91" height="89.06" rx="4.01" ry="4.01"/></g><rect class="cls-31" x="450.34" y="269.04" width="23.21" height="6.19" rx="1.54" ry="1.54"/><rect class="cls-31" x="450.34" y="280.62" width="23.21" height="6.19" rx="1.54" ry="1.54"/><rect class="cls-31" x="450.34" y="292.21" width="23.21" height="6.19" rx="1.54" ry="1.54"/><path class="cls-31" d="M439.12,255.23a34.48,34.48,0,1,0-64.93,23.22q.39,1.1.85,2.15a34.48,34.48,0,0,0,64.08-25.37Zm-23.76,36a25.82,25.82,0,0,1-32.41-14c-.23-.53-.44-1.06-.64-1.61a25.85,25.85,0,1,1,33,15.64Z"/><path class="cls-32" d="M382,259.14l-8.24-2.57a34.52,34.52,0,0,1,31.88-24.2l.26,8.63A25.89,25.89,0,0,0,382,259.14Z"/><path class="cls-33" d="M383,277.16,375,280.6q-.46-1.05-.85-2.15a34.32,34.32,0,0,1-.45-21.89l8.24,2.57a25.73,25.73,0,0,0,.34,16.41C382.51,276.1,382.72,276.63,383,277.16Z"/><path class="cls-34" d="M380.38,289.19A34.31,34.31,0,0,1,375,280.6l7.91-3.44a25.68,25.68,0,0,0,4,6.44Z"/><path class="cls-20" d="M418.16,287.29s-1.67-2.92,1-10.76a7.89,7.89,0,0,1,14.25-2c2.82,4.85,1.87,7.87-2.28,13.35S419.89,289.8,418.16,287.29Z"/><path class="cls-20" d="M438.76,422.06s.44,3.22.49,3.7,4.88-.29,4.88-.29l.39-3.83S439.36,421.6,438.76,422.06Z"/><path class="cls-35" d="M439.2,425.35a13.3,13.3,0,0,1-3,2.78c-1.48.85-3.8,1.18-4.68,2.05-.63.63-2.3,3.35,3.84,3.29s9.1.38,9.76-.66-1-7.69-1-7.69A16.93,16.93,0,0,1,439.2,425.35Z"/><path class="cls-20" d="M405.34,422.06s.44,3.22.49,3.7,4.88-.29,4.88-.29l.39-3.83S405.94,421.6,405.34,422.06Z"/><path class="cls-35" d="M405.78,425.35a13.29,13.29,0,0,1-3,2.78c-1.48.85-6.92,1.54-7.8,2.41-.63.63-1.68,3.17,7,2.93,6.14-.17,9.1.38,9.76-.66s-1-7.69-1-7.69A25.55,25.55,0,0,1,405.78,425.35Z"/><path class="cls-36" d="M437.13,342s2.47,7.69,2.15,14.32,1.28,13.88,1.94,20.8c.73,7.72,3.73,26,3.83,30.12s-.46,17.31-.46,17.31l-6,.14s-5-31.94-6.34-35.2-7.77-26.49-8-29.1S437.13,342,437.13,342Z"/><path class="cls-36" d="M412.28,341.16s-3.64,20.33-4.07,24.39-.72,19.63-.94,22.16-1.45,33.17-2.61,36.94h6.68s6.86-22.27,6.86-32.81,4.54-22.91,7.48-29.86,9.65-7.12,11.45-20C437.13,342,414.73,337.07,412.28,341.16Z"/><path class="cls-20" d="M420.59,289.36a5.81,5.81,0,0,1,0,3.76c-.75,1.56,9.63.63,9.63.63a11.17,11.17,0,0,1,.89-5.9C432.46,285.19,420.59,289.36,420.59,289.36Z"/><path class="cls-37" d="M437.62,343.63s-3.74,3.84-25.67-.6l.34-1.88,24.93.94Z"/><path class="cls-20" d="M419,293.63s-3.84.39-4.93.6-8.47-1.32-10-1.48-8-4.58-8.18-5.1-3.93-9.93-4.13-12-3.62-1-3.33.42c.55,2.62,1.25,9,1.64,10.84s1.53,6.51,2.16,7.06a45,45,0,0,0,12.12,6.85,48.33,48.33,0,0,1,10,4.65h28s10.9-15.59,11.14-17.94-7.62-18-9.18-19.92-3.83.64-3.83.64,4.69,13.77,5.32,15.72-5.46,10.56-7.13,10.58-6-.52-7.86-.6a13.37,13.37,0,0,1-3.92-.91Z"/><path class="cls-38" d="M406.93,304a9.06,9.06,0,0,1,3.75,6.2,81.11,81.11,0,0,0,2.19,12.21c.63,2.11-.55,17.46-.7,18.55s21.69,3.7,25,1.1c0,0,.94-14.33,1.33-18.4s2.27-13.93,2.9-15.26,8.22-12,8.53-13.39c0,0-3.93-6.26-6.75-6.34,0,0-4.48,5.25-5.93,5.48s-10.4-1.4-10.41-1.42-1,1.33-6.17-.24c0,0-6.18.7-7.19.83-1.22.16-9.68-1.06-9.68-1.06s-3.4,5.73-2.8,8.63Z"/><path class="cls-20" d="M392,276.91s-.77-3.63.16-4.67c.53-.59,1.79-2.16,1.9-2.39s1.47-1,1.47-1.38-1.33-.84-2.48.23-1.87,1.3-2.33,1.18-1.12-4-1.18-4.9-.42-3.46-1-3.29-.57,1.27-.57,1.27-.69-1.9-1.15-1.53-.4,1.3-.4,1.3-.87-1.07-1.1-.29a2.69,2.69,0,0,0,0,1.47s-.89-.49-1,.72a18.42,18.42,0,0,0,.89,6c.63,1.27,3,4.59,3.29,5.88S392,276.91,392,276.91Z"/><path class="cls-20" d="M441.27,270.54s-2.61-4.38-3.5-4.78a15,15,0,0,1-3.24-1.4c-1.1-.78-2.54-1.43-2.47-1.7s1.37-.16,2.75.44,2,.31,2.12,0a8.07,8.07,0,0,0-1.15-3c-.42-.52-3.39-3.51-2.9-4s2.43,1.2,2.74,1.54c0,0-1.54-3.23-.94-3.39s1.72,1,1.72,1-.13-2.77,2.84,1.72c0,0-.63-1.49.29-1s1.8,3.29,2.09,4.7,1.59,5.9,2.7,7S441.27,270.54,441.27,270.54Z"/><path class="cls-39" d="M431.11,287.85a11.84,11.84,0,0,1-4.3-.89c-2.92-1-3.14-6.12-3.77-5.51a1.85,1.85,0,0,1-3-.35s1.43-1.88.77-2.78a7,7,0,0,0-1.74-1.56s2.06-9.91,11.41-5.39C441.44,276.65,431.11,287.85,431.11,287.85Z"/><path class="cls-40" d="M420.59,293.12l.33-1.43a76.06,76.06,0,0,1,9.23.35l.34,1.71S426.32,295.64,420.59,293.12Z"/><path class="cls-20" d="M422.06,280.2c.54-.9,2.55-1.51,2.78,1,.18,2-3.58,4.14-3.62,2.3A5.57,5.57,0,0,1,422.06,280.2Z"/><path class="cls-41" d="M391.84,276.08a5.94,5.94,0,0,0-3.2,1,2.15,2.15,0,0,0,.17,1.07,13.29,13.29,0,0,1,3.3-1S392.09,276.33,391.84,276.08Z"/><circle class="cls-39" cx="390.15" cy="276.98" r="0.93" transform="translate(-16.77 528.68) rotate(-67.11)"/><path class="cls-42" d="M336.39,200.06s3.08,5.22,4.38,6.07c1.77,1.16.66,2.33-.18,2.33s-5.12.31-6.06-.76-1.41-4.28-2.29-5.12-1.78-4.17.43-5C334.62,196.88,336.39,200.06,336.39,200.06Z"/><path class="cls-43" d="M335.06,197.77s3.53,6.11,4.13,7-1.14.9-2.23.47-3.82-4.81-4.21-5.61a3,3,0,0,1-.08-2Z"/><polygon class="cls-42" points="331.48 201.06 332.3 207.32 332.73 207.34 332.59 202.83 331.48 201.06"/><path class="cls-42" d="M305.85,200.06s3.08,5.22,4.38,6.07c1.77,1.16.66,2.33-.18,2.33s-5.12.31-6.06-.76-1.41-4.28-2.29-5.12-1.81-4.26.43-5C304.1,197,305.85,200.06,305.85,200.06Z"/><path class="cls-43" d="M304.7,197.78s3.34,6.1,4,7-1.15.9-2.23.47-3.82-4.81-4.21-5.61a3,3,0,0,1-.08-2Z"/><polygon class="cls-42" points="300.95 201.06 301.76 207.32 302.19 207.34 302.06 202.83 300.95 201.06"/><path class="cls-43" d="M292.19,152.56l27.86,12.7a5.36,5.36,0,0,1,3.46,4.46c1.09,10.78,9.15,27.88,9.15,27.88,2.59,1.26,2.39.17,2.39.17-1.63-5.23-3.62-26.8-4.32-35.48-.15-1.84-.24-3.09-.26-3.5s-.31-.63-.83-1c-3.82-3.1-19.56-9.52-19.56-9.52C298.27,147.93,292.19,152.56,292.19,152.56Z"/><path class="cls-43" d="M286.94,158c.86,7.53,11.61,6.67,11.61,6.67h13a81.36,81.36,0,0,0-4.75,14c-1.4,6.82-4.71,18.88-4.71,18.88s.22.41,2.57.18c0,0,10.23-20.39,14.14-25.51a34.61,34.61,0,0,0,3.67-10.66c.14-1.2.05-2.13-.39-2.51a32.71,32.71,0,0,0-2.88-2c-4.08-2.57-11.17-6.54-15.12-7.42-5.29-1.19-13.65-3.42-13.65-3.42A14.4,14.4,0,0,0,286.94,158Z"/><path class="cls-44" d="M295.81,100a12.14,12.14,0,0,1-1-7.65c1-3.94,4.61-7.87,10-6.07s9.69,6,6.48,10.78,2.91,7,1.35,9.27-1,4.68-.31,5.21,2.79,2.43,2.55,4.68-10.39-6.55-10.39-6.55S298.92,98.56,295.81,100Z"/><path class="cls-45" d="M312.14,147.32s-.81,3.92-21.62-1C290.52,146.29,297.49,144,312.14,147.32Z"/><path class="cls-46" d="M290.28,147.39l-1,1.85,22.82.67c-1.2-4-.81-9.49-.6-13.63.26-5.06,3.05-8.58,2.75-13.69l3.27.52c-2.31-6.57-3.09-9.82-10.25-12.35a13.38,13.38,0,0,0-6.39-.78c-8.29.68-10.79.78-14.87,8.3,6.38,1,5.33,3.3,7.26,9.65.94,3.09,1.93,6.54,1.42,9.81S290.28,144.46,290.28,147.39Z"/><path class="cls-20" d="M303.52,112.35c-3.39-.64-2.67-2.53-2.67-2.53s.16-1.07.22-2.41c0-.34,0-.71,0-1.08a14.45,14.45,0,0,0-.09-1.67c-.28-2.28,6.16-.92,6.16-.92s-.37,4.61.52,6S306.91,113,303.52,112.35Z"/><path class="cls-20" d="M297,109.81s6.85,7.9,9.38,9.74c0,0,2.91-2.63,1.12-9.57C307.53,110,304.23,108.32,297,109.81Z"/><path class="cls-20" d="M297.23,90.78s-3.56,6.85,0,13.34,10.45-2.83,10.9-3.92,2.82-7.27-1.9-9.15S298.24,88.92,297.23,90.78Z"/><path class="cls-44" d="M298.41,93.21s-2.45,3.21-2.74,5.59A12.73,12.73,0,0,1,297.45,90c2.75-4.31,9.76-.21,10.7,1.52s3.69,3.24-.93,10.65C307.22,102.17,298.91,96.39,298.41,93.21Z"/><path class="cls-47" d="M304.09,104.8a6.64,6.64,0,0,1-3,2.6c0-.34,0-.71,0-1.08A5.76,5.76,0,0,0,304.09,104.8Z"/><path class="cls-20" d="M268.16,141.23s-1.69.75-2.49.41a7.48,7.48,0,0,0-2.43-.41c-.52,0-2.16-.58-2.13.05s2.66,1.09,3.2,1.29-1.61,1.38-1.81,1.91,2.22,4,3.59,3,2.11-2.94,2.39-3.07a10,10,0,0,0,1-.67Z"/><path class="cls-20" d="M262.75,144.17s-4,3.29-4,3.73.15.65.53.36l3.93-3.06s-4,4.69-4.11,5,.3.63.52.49,4.45-4.55,4.45-4.55-3.7,4.39-3.72,4.71a.43.43,0,0,0,.73.29l4-4.18s-2.47,3.37-2.32,3.66.41.56,1-.33,2.28-2.83,2.28-2.83Z"/><path class="cls-17" d="M310.22,164.68H298.55s-10.75.86-11.61-6.67a14.4,14.4,0,0,1,3.54-11.71s5.68,1.51,10.64,2.71a38.44,38.44,0,0,1,9-.78s21,6.95,20.39,10.6C330.47,158.83,321.68,154.13,310.22,164.68Z"/><polygon class="cls-48" points="302.63 151.64 324.88 151.31 313.64 157.02 302.63 151.64"/><path class="cls-46" d="M309.54,148.8a19,19,0,0,1-11.14.19l-.29-2.29,12.63.7Z"/><polygon class="cls-49" points="313.64 157.02 302.63 152.75 302.63 151.64 314.51 155.93 313.64 157.02"/><path class="cls-50" d="M309.46,149.86a1.1,1.1,0,0,0,1.53,1.09l1.29-.55a.92.92,0,0,0,.55-1c-.54-3.37-1.69-16.47,0-18.71a8.15,8.15,0,0,0,1.23-2.2c1.11,2.87,2.5,6.57,3.05,8.56l10.51,14,3.53.89a119.26,119.26,0,0,0-7.93-16.21c-.69-1.85-2.66-7.44-4.41-12.42l-2.66-7.6a3.56,3.56,0,0,0-1.54-1.89c-1.63-1-4.34-2.51-6.8-3.7h0l-.24-.11h0c4.68,7.08,2.85,27.07,1.93,39.85Z"/><path class="cls-50" d="M292.1,110.58c-1.5.23-5.21,3.84-7.19,7.48-2.25,4.16-4.54,8.89-6.26,10.44-3.16,2.86-12,13-12.42,12.73a27.29,27.29,0,0,0,2.75,3.17c.16.07,14.54-12.38,15.91-14.28s4.81-9.35,5.86-9.18h0a56.22,56.22,0,0,1,2.56,7l.06.2a22.39,22.39,0,0,1,.3,9.3c-.34,2.59-2.27,6.83-3.44,8.89a1.4,1.4,0,0,0,0,1.08h0a.77.77,0,0,0,.38.45l4.22,1.56,1,.37a2.16,2.16,0,0,0,2.89-1.75c.94-7.22,2.12-14.59,3.07-17.37a26.31,26.31,0,0,0-1.62-21.34A78.51,78.51,0,0,0,292.1,110.58Z"/><polygon class="cls-51" points="313.64 157.02 320.26 138.94 341.6 139.29 335.29 155.95 313.64 157.02"/><ellipse class="cls-52" cx="328.71" cy="147.75" rx="2.64" ry="1.81" transform="translate(49.5 375.61) rotate(-63.42)"/><path class="cls-44" d="M304.6,97.6s1.37,2.13.1,4,.32,3.64.59,5.58-5.27,7.1.9,9.7,8.13-1.7,6.55-4.06-2.69-4.28-2.82-7.65S308.68,96.52,304.6,97.6Z"/><polygon class="cls-16" points="259.93 72.09 286.21 72.09 286.21 91.14 286.21 95.15 282.2 91.14 259.93 91.14 259.93 72.09"/></g></g></svg>