<svg xmlns="http://www.w3.org/2000/svg" xmlns:xlink="http://www.w3.org/1999/xlink" viewBox="0 0 643.02 474.47"><defs><style>.cls-1,.cls-11,.cls-14,.cls-2,.cls-20,.cls-21,.cls-22,.cls-23,.cls-25,.cls-26,.cls-8{fill:none;}.cls-2{stroke:#ded8d5;stroke-width:1.97px;}.cls-11,.cls-2,.cls-22{stroke-miterlimit:10;}.cls-3{fill:#ffb1a5;}.cls-4{fill:#ead254;}.cls-5{fill:#00857b;}.cls-6{fill:#ededed;}.cls-7{fill:#576EE0;}.cls-11,.cls-8{stroke:#fff;}.cls-14,.cls-20,.cls-21,.cls-23,.cls-25,.cls-26,.cls-8{stroke-linecap:round;stroke-linejoin:round;}.cls-8{stroke-width:1.65px;}.cls-9{fill:#fff;}.cls-10{fill:#56dfed;}.cls-11{stroke-width:1.18px;}.cls-12{clip-path:url(#clip-path);}.cls-13{fill:#8e716c;}.cls-14,.cls-20,.cls-21,.cls-23,.cls-25,.cls-26{stroke:#282828;}.cls-14{stroke-width:1.23px;}.cls-15{fill:#f3978e;}.cls-16{fill:#372f5f;}.cls-17{fill:#261b43;}.cls-18{fill:#e6e6e6;}.cls-19{fill:#282828;}.cls-20{stroke-width:0.99px;}.cls-21{stroke-width:1.23px;}.cls-22{stroke:#c98bd2;stroke-width:1.34px;}.cls-23{stroke-width:1.23px;}.cls-24{fill:#005683;}.cls-25{stroke-width:1.4px;}.cls-26{stroke-width:1.53px;}</style><clipPath id="clip-path"><rect class="cls-1" x="116.85" y="66.11" width="459.27" height="332.68"/></clipPath></defs><title>Asset 2</title><g id="Layer_2" data-name="Layer 2"><g id="OBJECTS"><line class="cls-2" x1="70.85" y1="123.37" x2="570.22" y2="123.37"/><rect class="cls-2" x="70.85" y="90.64" width="499.37" height="308.96" rx="6.52" ry="6.52"/><circle class="cls-3" cx="99.19" cy="107.34" r="4.57"/><circle class="cls-4" cx="116.95" cy="107.34" r="4.57"/><circle class="cls-5" cx="134.7" cy="107.34" r="4.57"/><rect class="cls-6" x="511.74" y="113.11" width="129.34" height="120.52" rx="5.99" ry="5.99"/><rect class="cls-2" x="511.74" y="113.11" width="129.34" height="120.52" rx="5.99" ry="5.99"/><rect class="cls-7" x="540.08" y="140.25" width="73.04" height="62.03" rx="6.02" ry="6.02" transform="translate(1153.21 342.53) rotate(180)"/><polygon class="cls-8" points="593.26 181.58 564.71 181.58 559.56 181.58 559.56 158.97 593.26 158.97 593.26 164.62 593.26 181.58"/><polyline class="cls-8" points="559.56 158.97 576.41 172.25 593.26 158.97"/><rect class="cls-6" x="0.98" y="215.51" width="123.35" height="109.01" rx="5.71" ry="5.71"/><rect class="cls-2" x="0.98" y="215.51" width="123.35" height="109.01" rx="5.71" ry="5.71"/><rect class="cls-3" x="26.71" y="234.18" width="71.33" height="69.34" rx="6.64" ry="6.64"/><path class="cls-9" d="M48.55,255.24a20.17,20.17,0,1,0,28.52,0A20.25,20.25,0,0,0,48.55,255.24ZM77,258.14H70.59a40.89,40.89,0,0,0-2.5-6.06A18.22,18.22,0,0,1,77,258.14ZM55.4,268.32a32.59,32.59,0,0,1,1-7.82h12.9a32.6,32.6,0,0,1,1,7.82Zm14.73,2.36a38.37,38.37,0,0,1-1.39,7.82H56.86a38.36,38.36,0,0,1-1.39-7.82ZM62.81,251.3a18.33,18.33,0,0,1,2.85.22,37.09,37.09,0,0,1,2.92,6.62H57A37,37,0,0,1,60,251.53,18.33,18.33,0,0,1,62.81,251.3Zm-5.29.78a40.82,40.82,0,0,0-2.5,6.06H48.59A18.21,18.21,0,0,1,57.52,252.08ZM47,260.5h7.36a35.07,35.07,0,0,0-1,7.82H44.65A18.09,18.09,0,0,1,47,260.5Zm0,18a18.08,18.08,0,0,1-2.34-7.82h8.7a37.88,37.88,0,0,0,1.23,7.82Zm1.6,2.36h6.69A48.86,48.86,0,0,0,57.76,287,18.21,18.21,0,0,1,48.59,280.85Zm14.21,6.84a18.32,18.32,0,0,1-2.38-.15,54.43,54.43,0,0,1-2.82-6.68H68a54.57,54.57,0,0,1-2.82,6.68A18.32,18.32,0,0,1,62.81,287.69Zm5-.71a48.83,48.83,0,0,0,2.49-6.13H77A18.21,18.21,0,0,1,67.85,287Zm10.78-8.49H71a37.87,37.87,0,0,0,1.23-7.82H81A18.08,18.08,0,0,1,78.62,278.49ZM81,268.32H72.29a35.09,35.09,0,0,0-1-7.82h7.36A18.09,18.09,0,0,1,81,268.32Z"/><path class="cls-7" d="M112,62.13H10.55a3.79,3.79,0,0,1-3.79-3.79h0a3.79,3.79,0,0,1,3.79-3.79H112a3.79,3.79,0,0,1,3.79,3.79h0A3.79,3.79,0,0,1,112,62.13Z"/><path class="cls-10" d="M639.22,309.81H590a3.79,3.79,0,0,1-3.79-3.79h0a3.79,3.79,0,0,1,3.79-3.79h49.22A3.79,3.79,0,0,1,643,306h0A3.79,3.79,0,0,1,639.22,309.81Z"/><rect class="cls-7" x="595.88" y="342.32" width="11.74" height="11.37" rx="2.86" ry="2.86"/><rect class="cls-3" x="25.83" y="368.6" width="11.74" height="11.37" rx="2.86" ry="2.86"/><rect class="cls-3" x="391.89" y="27.75" width="106.11" height="30.46" rx="3.01" ry="3.01"/><line class="cls-11" x1="406.34" y1="38.6" x2="477.52" y2="38.6"/><line class="cls-11" x1="406.34" y1="45.91" x2="435.33" y2="45.91"/><polygon class="cls-3" points="403.44 54.76 403.44 66.64 418.37 54.76 403.44 54.76"/><path class="cls-10" d="M198.58,0h50.51a6.46,6.46,0,0,1,6.46,6.46v47.1A6.46,6.46,0,0,1,249.09,60H200.64a8.52,8.52,0,0,1-8.52-8.52v-45A6.46,6.46,0,0,1,198.58,0Z"/><path class="cls-9" d="M238.64,34.45,235,30.84a3.17,3.17,0,0,0-2.32-1.1,3.34,3.34,0,0,0-2.32,1l-2.06,2.06-.39-.19a6,6,0,0,1-.64-.32,22.27,22.27,0,0,1-5.35-4.9,11.71,11.71,0,0,1-1.68-2.64c.52-.45,1-1,1.42-1.42l.58-.58a3.41,3.41,0,0,0,1.1-2.39,3.41,3.41,0,0,0-1.1-2.39l-1.81-1.81a5.8,5.8,0,0,1-.58-.64l-1.23-1.23a3.34,3.34,0,0,0-2.32-1,3.2,3.2,0,0,0-2.32,1l-2.26,2.26a5.19,5.19,0,0,0-1.48,3.16,11.75,11.75,0,0,0,.84,4.9,26.39,26.39,0,0,0,5,8.45,31.34,31.34,0,0,0,10.32,8.06,17.13,17.13,0,0,0,5.8,1.74h.45a5.12,5.12,0,0,0,3.87-1.68l.06-.06A9.87,9.87,0,0,1,237.8,40l.84-.84A3.24,3.24,0,0,0,238.64,34.45Zm-1.48,3.35-.77.77c-.45.39-.84.84-1.29,1.29a3.07,3.07,0,0,1-2.32,1h-.32a13.59,13.59,0,0,1-5-1.55,29.36,29.36,0,0,1-9.61-7.55,28,28,0,0,1-4.71-7.8,8,8,0,0,1-.77-4,2.72,2.72,0,0,1,.9-1.87l2.19-2.19a1.35,1.35,0,0,1,.9-.45,1.23,1.23,0,0,1,.9.45L218.39,17a6.07,6.07,0,0,0,.64.64l1.81,1.81a1.51,1.51,0,0,1,.45.9,1.35,1.35,0,0,1-.45.9l-.58.58-1.61,1.61-.06.06a1.41,1.41,0,0,0-.39,1.61v.06a14.88,14.88,0,0,0,2.13,3.48,23.92,23.92,0,0,0,5.87,5.35,5.33,5.33,0,0,0,.84.45,6,6,0,0,1,.64.32l.06.06a1.48,1.48,0,0,0,1.81-.32l2.26-2.26a1.06,1.06,0,0,1,1.74,0l3.61,3.61A1.22,1.22,0,0,1,237.15,37.8Z"/><g class="cls-12"><path class="cls-13" d="M459.84,287.28l-36.5-4.86.29,3.62-31.21,4.16S372.29,340.67,390,451.66h25.39l9.14-112.55h3.24l8.85,112.55H462C479.76,340.67,459.84,287.28,459.84,287.28Z"/><line class="cls-14" x1="412.94" y1="339.11" x2="439.43" y2="339.11"/><path class="cls-3" d="M481.15,234c-3.12-5-20.66-4.81-21.59-4.92-4.74-.56,3,37.18,12.91,70.17a11.08,11.08,0,0,0,14.93,7l.2-.08A11.09,11.09,0,0,0,494.17,294C489.48,269.08,484.76,239.8,481.15,234Z"/><polygon class="cls-15" points="485.33 247.68 462.94 256.37 460.84 245.75 484.03 239.96 485.33 247.68"/><path class="cls-15" d="M489.56,268.94s-10.61,14.25-10.1,13.59,8.32-23,8.32-23Z"/><path class="cls-3" d="M504.73,249.79l-30.41,39.4a11.18,11.18,0,0,0,2.76,16.21h0A11.18,11.18,0,0,0,493,301.35l25.31-46.7Z"/><circle class="cls-3" cx="516.46" cy="247.97" r="12.54" transform="translate(121.73 663.2) rotate(-72.1)"/><path class="cls-3" d="M525.61,240.43s3.43-3.56-2.66-6.06-13.62-1.93-18.43,9.75Z"/><path class="cls-16" d="M531.92,215.53,544.65,221a1.31,1.31,0,0,1,.58,1.88l-16.75,31.29a1.6,1.6,0,0,1-2,.76l-12.73-5.52a1.31,1.31,0,0,1-.58-1.88l16.75-31.29A1.6,1.6,0,0,1,531.92,215.53Z"/><path class="cls-17" d="M530.7,215l12.73,5.52a1.31,1.31,0,0,1,.58,1.88l-16.75,31.29a1.6,1.6,0,0,1-2,.76l-12.73-5.52A1.31,1.31,0,0,1,512,247l16.75-31.29A1.6,1.6,0,0,1,530.7,215Z"/><polygon class="cls-18" points="529.26 218.16 540.45 223.01 526.8 248.51 515.61 243.66 529.26 218.16"/><polygon class="cls-9" points="540.45 223.01 515.61 243.66 529.26 218.16 540.45 223.01"/><path class="cls-3" d="M519.3,233.33a20.31,20.31,0,0,1,5.39,2,2.88,2.88,0,0,1,1.39,3.2h0a2.86,2.86,0,0,1-2.42,2.15l-6.62.83s-3.45,6-8,6.62l4.14-10.45Z"/><path class="cls-10" d="M434.75,184.42c-.73,0,46.95,6.6,54.81,61l-24.74,3.79-5,41h-69l-13.7-75.82s15.29-21.91,43.68-30Z"/><line class="cls-14" x1="464.82" y1="249.16" x2="466.97" y2="225.43"/><path class="cls-3" d="M439.28,185.19V166.31H417.16v19.1a43,43,0,0,0-5.94,2.41l17.26,10.28,17.64-10.28A28.78,28.78,0,0,0,439.28,185.19Z"/><path class="cls-19" d="M417,168.62s4,10.55,14.58,9.64c9.75-.84,8.2-15.46,8.2-15.46Z"/><path class="cls-15" d="M407.3,154.59c-3.47,3.15-11.22-8.79-7.87-12.14s5.91,1.91,5.91,1.91l1.5,3.56,1.13,4.82.27,1.26Z"/><path class="cls-20" d="M401,146.68s2.63-1.18,5,2.62"/><path class="cls-15" d="M448.31,154.23c3.19,3.43,11.93-7.81,8.87-11.43s-6,1.4-6,1.4l-1.79,3.42-1.53,4.71-.37,1.24Z"/><path class="cls-20" d="M455.21,146.87s-2.52-1.4-5.16,2.2"/><path class="cls-19" d="M401.22,131.07c0,15.79,12,23.28,26.9,23.28s26.9-7.49,26.9-23.28-12-26.54-26.9-26.54S401.22,115.28,401.22,131.07Z"/><path class="cls-3" d="M404.87,132.17a108,108,0,0,0,2.74,24C409,162,412.72,166,418,169.32l1,.6a18.3,18.3,0,0,0,18.63.21h0c5.77-3.36,9.81-7.8,11.05-14a157.87,157.87,0,0,0,2.51-23.91s2.15-24.48-22.83-24S404.87,132.17,404.87,132.17Z"/><path class="cls-21" d="M426.52,146.14v3.39a1.53,1.53,0,0,0,.11.57,1.51,1.51,0,0,0,1.8.83l1.55-.41"/><path class="cls-19" d="M422.55,133l-12.42,2.91s.56-3.16,5.64-4.31S422.55,133,422.55,133Z"/><path class="cls-19" d="M433.57,133l12,2.91s-.55-3.16-5.45-4.31S433.57,133,433.57,133Z"/><ellipse class="cls-19" cx="417.83" cy="142.12" rx="2.09" ry="2.09"/><ellipse class="cls-19" cx="437.68" cy="142.12" rx="2.09" ry="2.09"/><path class="cls-9" d="M419.93,154.87h16.15S428.92,163.57,419.93,154.87Z"/><circle class="cls-22" cx="416.95" cy="142.94" r="8.9"/><circle class="cls-22" cx="438.83" cy="142.94" r="8.9"/><path class="cls-22" d="M425.86,142.94s2.11-2,4.07,0"/><line class="cls-22" x1="408.05" y1="142.94" x2="405.24" y2="142.86"/><line class="cls-22" x1="447.73" y1="142.94" x2="450.55" y2="142.86"/><path class="cls-19" d="M450.88,140.28s-10-13.5-7.69-27.19a19.68,19.68,0,0,1,9.35,13.36C454.47,136.09,450.88,140.28,450.88,140.28Z"/><path class="cls-19" d="M404.86,141.2s11.6-15.34,9.3-29a22.85,22.85,0,0,0-10,14.28C402.25,136.09,404.86,141.2,404.86,141.2Z"/><path class="cls-19" d="M450,118.49s-12.83,14-47.92,11.64c0,0,5.37-20.61,22.38-22.8C424.5,107.32,444.14,105,450,118.49Z"/><circle class="cls-19" cx="449.14" cy="102.07" r="16.76"/><path class="cls-19" d="M244.6,287.24l-31.21-4.16.28-3.62-36.5,4.86S157.25,337.71,175,448.7h25.39l8.85-112.55h3.24L221.6,448.7H247C264.72,337.71,244.6,287.24,244.6,287.24Z"/><path class="cls-19" d="M242.11,135.4a57.55,57.55,0,0,1-10.48-18.9c-3.09-8.73-13.19-5.18-13.19-5.18s-8.42-10.83-21.09-7.06S180.28,117,180,127.76s-8.69,12.39-15.18,24.79c-11.46,21.89,7.83,40.33,43,35.21l0-.34a36.85,36.85,0,0,0,12.87,1.2C262.92,186.12,258.85,155.09,242.11,135.4Z"/><path class="cls-15" d="M228.29,151.63c3.47,3.15,11.22-8.79,7.87-12.14s-5.91,1.91-5.91,1.91l-1.5,3.56-1.13,4.82-.27,1.26Z"/><path class="cls-20" d="M234.55,143.72s-2.63-1.18-5,2.62"/><path class="cls-15" d="M187.28,151.27c-3.19,3.43-11.93-7.81-8.87-11.43s6,1.4,6,1.4l1.79,3.42,1.53,4.71.37,1.24Z"/><path class="cls-20" d="M180.38,143.91s2.52-1.4,5.16,2.2"/><path class="cls-19" d="M234.38,128.11c0,15.79-12,23.28-26.9,23.28s-26.9-7.49-26.9-23.28,12-26.54,26.9-26.54S234.38,112.32,234.38,128.11Z"/><rect class="cls-3" x="196.31" y="163.35" width="22.13" height="28.65"/><path class="cls-19" d="M193.09,161.57s6.16,12.29,13.74,14.21a10.67,10.67,0,0,0,6.14-.35c2.85-1,6.47-5.26,7.08-10l.29-2.69S206.84,170.11,193.09,161.57Z"/><path class="cls-3" d="M230.72,129.21a108,108,0,0,1-2.74,24c-1.34,5.81-5.11,9.88-10.43,13.15l-1,.6a18.3,18.3,0,0,1-18.63.21h0c-5.77-3.36-9.81-7.8-11.05-14a157.88,157.88,0,0,1-2.51-23.91s-2.15-24.48,22.83-24S230.72,129.21,230.72,129.21Z"/><path class="cls-23" d="M205.81,144.5v2a1.46,1.46,0,0,0,1.91,1.4l1.55-.41"/><path class="cls-19" d="M211,131.24l13.29,3.15s-.6-3.42-6-4.66S211,131.24,211,131.24Z"/><path class="cls-19" d="M204,131.24l-13.46,3.15s.61-3.42,6.12-4.66S204,131.24,204,131.24Z"/><ellipse class="cls-19" cx="197.12" cy="139.49" rx="2.09" ry="2.08"/><ellipse class="cls-19" cx="216.97" cy="139.49" rx="2.09" ry="2.08"/><path class="cls-9" d="M197.83,151.39h18.38s-1.3,5-9.63,5A9.75,9.75,0,0,1,197.83,151.39Z"/><path class="cls-19" d="M184.71,137.32s10-13.5,7.69-27.19a19.68,19.68,0,0,0-9.35,13.36C181.12,133.13,184.71,137.32,184.71,137.32Z"/><path class="cls-19" d="M230.74,136.88s-11.6-14-9.3-27.65a22.85,22.85,0,0,1,10,14.28C233.35,133.13,230.74,136.88,230.74,136.88Z"/><path class="cls-19" d="M185.55,115.53s11.46,15.41,46.56,13c0,0-4-22-21-24.16C211.09,104.37,191.45,102,185.55,115.53Z"/><path class="cls-3" d="M153.56,355c-.51.8,29.21-129.3,20.39-127.34-.81.18-16.26,1.61-18.55,6.28C148.74,247.49,144,354,144,354Z"/><path class="cls-3" d="M144,354s-4.79,22.22,13.32,24.65A2.54,2.54,0,0,0,160,377l.05-.15a2.54,2.54,0,0,0-1.41-3.14c-3-1.32-7.53-4.66-5.26-12.23,0,0,2.62-.32,4.06,4.56a2.1,2.1,0,0,0,3,1.3h0a2.1,2.1,0,0,0,1.14-2.15c-.43-3.42-2.15-11.65-8.75-13.86Z"/><path class="cls-15" d="M150.05,265.22s17.12,24.11,17.21,23.65,6-33.86,6-33.86l-20.78-9Z"/><path class="cls-5" d="M197.63,187.29c.73,0-42.32.77-50.19,55.12l24.74,3.79,5,41h69l13.7-75.82s-9.74-16.43-38.13-24.47Z"/><path class="cls-3" d="M176.59,193.86s6.08,8.08,31,8.08c24.7,0,31-8.5,31-8.5s-14.56-8.13-31.45-10.77A111.93,111.93,0,0,0,176.59,193.86Z"/><polygon class="cls-24" points="261.29 366.06 261.35 474.47 314.98 474.47 319.1 366.06 261.29 366.06"/><polygon class="cls-24" points="377.73 366.06 377.67 474.47 324.04 474.47 319.92 366.06 377.73 366.06"/><rect class="cls-24" x="292.99" y="366.06" width="55.45" height="37.66"/><line class="cls-25" x1="300.74" y1="403.72" x2="338.98" y2="403.72"/><path class="cls-3" d="M411.61,271.46c3.33,36.73-.18,63.5.79,131.09l-32,1.34-4.77-126.52Z"/><path class="cls-15" d="M379.57,300.12s19.82-1.81,33.37-10.75l-.36-7.87-33,4.5Z"/><path class="cls-7" d="M347.77,186.88s63,15.83,74.37,95.75c0,0-30.81,13.36-61.69,7.61l6.95-26.73Z"/><path class="cls-3" d="M159.71,220.11l46.88,55.36-14.34,40.4S156.61,266.34,140.6,228Z"/><path class="cls-3" d="M161.25,222.11s-16.46,9.3-20.65,5.94c-7.32-5.88-13.36-27.4-13.36-27.4S158,189,157.73,189.5,161.25,222.11,161.25,222.11Z"/><path class="cls-3" d="M161.25,222.11c-.29-1.66,6.1-19.53,8.3-26.24a3,3,0,0,0-2.34-3.73h0a3.42,3.42,0,0,0-3.81,1.56l-7.72,13.2Z"/><path class="cls-3" d="M160.68,202.78l-5.3-26.37a3.32,3.32,0,0,0-3.84-2.63h0A2.86,2.86,0,0,0,149.2,177l2.31,19.64Z"/><path class="cls-3" d="M150.14,193.06l-7.2-18.83a3.3,3.3,0,0,0-4.09-2h0a2.85,2.85,0,0,0-1.88,3.38l5.34,21.76Z"/><path class="cls-3" d="M142.41,198.61l-9.11-18.5a3.62,3.62,0,0,0-4.62-1.77h0A3.15,3.15,0,0,0,127,182.5L134.31,200Z"/><path class="cls-3" d="M127.24,200.65l-7.15-11.34a2.56,2.56,0,0,1,1.25-3.42h0a2.92,2.92,0,0,1,3.57,1l9.4,13Z"/><path class="cls-26" d="M159.24,200.8s-10.73-1.13-11.84,13.18"/><path class="cls-3" d="M182.73,297s8.82,30.51,26.39,26.46,45-41.58,45-41.58l-6.13-64.07-49.31,60.69Z"/><path class="cls-15" d="M213.93,259.62s16.65,25.11,30.85,34l9.3-11.73-35.86-27.74Z"/><path class="cls-7" d="M286.77,185.5s-48.88,11-74.93,67.83c0,0,15.74,23.71,41,34.25l16.89-20.69Z"/><path class="cls-7" d="M286.77,185.32a122.41,122.41,0,0,0-31.1,22.78l3.77,166.06H379.76L379.37,209s-15.17-14.84-31.61-22.08C333.81,180.74,300.34,178.36,286.77,185.32Z"/><path class="cls-25" d="M327,232.77h33.47a0,0,0,0,1,0,0V249.5a16.74,16.74,0,0,1-16.74,16.74h0A16.74,16.74,0,0,1,327,249.5V232.77A0,0,0,0,1,327,232.77Z"/><line class="cls-25" x1="379.57" y1="290.86" x2="381.13" y2="236.54"/><line class="cls-25" x1="257.52" y1="281.81" x2="254.92" y2="234.72"/><path class="cls-19" d="M288.18,124.67l-5-24.81c-.28-2-1.07-5.14-.11-8.07,1.59-4.85,7.43-14.16,17.41-9.9l2.16,9.82s-10.36,2.09-14.52,15.65Z"/><path class="cls-19" d="M299.73,87c-.18,3.26-3.06,17.53-13.18,22.72C286.55,109.73,277.69,90.73,299.73,87Z"/><path class="cls-3" d="M335.22,180.75h0V138.62H296.38v42.14L284.81,186s2.71,17.46,31.39,17.85,31.56-17,31.56-17Z"/><path class="cls-19" d="M300.46,81.89s7.13-18.81,29.11-8.81c13.31,6.05,17,14.16,18.62,19.91a23.11,23.11,0,0,1,.59,6.71l-5.32,25L322.71,90.12l-20.09,1.59Z"/><path class="cls-15" d="M343.47,124.67s2.62-4.17,8-2.12,3,15.17-5.14,16.84a6.41,6.41,0,0,1-5.18-1.36S343.15,128.35,343.47,124.67Z"/><path class="cls-25" d="M350.42,127.18s-4.52-1.51-7.74,5.15"/><path class="cls-15" d="M288.18,124.67s-2.62-4.17-8-2.12-3,15.17,5.14,16.84a6.41,6.41,0,0,0,5.18-1.36S288.49,128.35,288.18,124.67Z"/><path class="cls-25" d="M281.23,127.18s4.52-1.51,7.74,5.15"/><path class="cls-3" d="M344,112.22c0,7.91-.77,24.45-5.64,34.27-4.56,9.22-12.11,14.18-22,14.48s-17.27-3.52-23.18-15.49-5.63-33.12-5.63-33.12,0-28.25,27.92-28.25C344.88,84.12,344,112.22,344,112.22Z"/><path class="cls-19" d="M296.67,151.38s3.25,16.51,17.62,18.4c16.53,2.18,20.93-18,20.93-18s-7.3,9.15-18.86,9.17A25.28,25.28,0,0,1,296.67,151.38Z"/><path class="cls-25" d="M313.79,124v6.54a2.14,2.14,0,0,0,.15.8,2.1,2.1,0,0,0,2.51,1.16l2.17-.58"/><circle class="cls-19" cx="303" cy="120.83" r="2.54"/><circle class="cls-19" cx="326.83" cy="120.83" r="2.54"/><path class="cls-19" d="M320.33,108.18l17.09,4.41s-.78-4.79-7.77-6.54S320.33,108.18,320.33,108.18Z"/><path class="cls-19" d="M309.71,108.18l-17.09,4.41s.78-4.79,7.77-6.54S309.71,108.18,309.71,108.18Z"/><path class="cls-25" d="M306.31,137.08s2.52,1.93,9.15,1.93a23.17,23.17,0,0,0,9.79-1.93"/><path class="cls-19" d="M296.67,87.65s5.19,14.74,28.59,14.28c15.9-.31,19.7,11.2,19.7,11.2s-2.77-25.73-3.5-25.48-24.2-6.26-24.2-6.26Z"/></g></g></g></svg>