<svg xmlns="http://www.w3.org/2000/svg" xmlns:xlink="http://www.w3.org/1999/xlink" viewBox="0 0 548.19 348.47"><defs><style>.cls-1{fill:url(#linear-gradient);}.cls-2{fill:#576EE0;}.cls-3{fill:#dde4f4;}.cls-4{fill:url(#linear-gradient-2);}.cls-5{fill:url(#linear-gradient-3);}.cls-6{fill:url(#linear-gradient-4);}.cls-7{fill:url(#linear-gradient-5);}.cls-8{fill:url(#linear-gradient-6);}.cls-9{fill:url(#linear-gradient-7);}.cls-10{fill:url(#linear-gradient-8);}.cls-11{fill:#fff;opacity:0.78;}.cls-12{fill:url(#linear-gradient-9);}.cls-13{fill:url(#linear-gradient-10);}.cls-14{fill:url(#linear-gradient-11);}.cls-15{fill:url(#linear-gradient-12);}.cls-16{fill:url(#linear-gradient-13);}.cls-17{fill:url(#linear-gradient-14);}.cls-18{fill:url(#linear-gradient-15);}.cls-19{fill:url(#linear-gradient-16);}.cls-20{fill:url(#linear-gradient-17);}.cls-21{fill:url(#linear-gradient-18);}.cls-22{fill:url(#linear-gradient-19);}.cls-23{fill:url(#linear-gradient-20);}.cls-24{fill:url(#linear-gradient-21);}.cls-25{fill:url(#linear-gradient-22);}.cls-26{fill:url(#linear-gradient-23);}.cls-27{fill:url(#linear-gradient-24);}.cls-28{fill:url(#linear-gradient-25);}.cls-29{fill:url(#linear-gradient-26);}.cls-30{fill:url(#linear-gradient-27);}.cls-31{fill:url(#linear-gradient-28);}.cls-32{fill:url(#linear-gradient-29);}.cls-33{fill:url(#linear-gradient-30);}.cls-34{fill:url(#linear-gradient-31);}.cls-35{fill:url(#linear-gradient-32);}.cls-36{fill:url(#linear-gradient-33);}.cls-37{fill:url(#linear-gradient-34);}.cls-38{fill:url(#linear-gradient-35);}.cls-39{opacity:0.8;}.cls-40{fill:url(#linear-gradient-36);}.cls-41{fill:url(#linear-gradient-37);}.cls-42{fill:url(#linear-gradient-38);}.cls-43{fill:url(#linear-gradient-39);}.cls-44{fill:url(#linear-gradient-40);}.cls-45{fill:url(#linear-gradient-41);}.cls-46{opacity:0.7;}.cls-47{fill:url(#linear-gradient-42);}.cls-48{fill:url(#linear-gradient-43);}.cls-49{fill:url(#linear-gradient-44);}.cls-50{fill:url(#linear-gradient-45);}.cls-51{fill:url(#linear-gradient-46);}.cls-52{fill:url(#linear-gradient-47);}.cls-53{fill:url(#linear-gradient-48);}.cls-54{fill:url(#linear-gradient-49);}.cls-55{fill:url(#linear-gradient-50);}.cls-56{fill:url(#linear-gradient-51);}.cls-57{fill:url(#linear-gradient-52);}.cls-58{fill:url(#linear-gradient-53);}.cls-59{fill:url(#linear-gradient-54);}.cls-60{fill:url(#linear-gradient-55);}.cls-61{fill:url(#linear-gradient-56);}.cls-62{fill:url(#linear-gradient-57);}.cls-63{fill:url(#linear-gradient-58);}.cls-64{fill:url(#linear-gradient-59);}.cls-65{fill:url(#linear-gradient-60);}.cls-66{fill:url(#linear-gradient-61);}.cls-67{fill:url(#linear-gradient-62);}.cls-68{fill:#c0cfeb;}.cls-69{fill:url(#linear-gradient-63);}.cls-70{fill:url(#linear-gradient-64);}.cls-71{fill:url(#linear-gradient-65);}.cls-72{fill:url(#linear-gradient-66);}.cls-73{fill:url(#linear-gradient-67);}.cls-74{fill:url(#linear-gradient-68);}.cls-75{fill:url(#linear-gradient-69);}.cls-76{fill:url(#linear-gradient-70);}.cls-77{fill:url(#linear-gradient-71);}.cls-78{fill:url(#linear-gradient-72);}.cls-79{fill:url(#linear-gradient-73);}.cls-80{fill:url(#linear-gradient-74);}.cls-81{fill:url(#linear-gradient-75);}.cls-82{fill:url(#linear-gradient-76);}.cls-83{fill:url(#linear-gradient-77);}.cls-84{fill:url(#linear-gradient-78);}.cls-85{fill:url(#linear-gradient-79);}.cls-86{fill:url(#linear-gradient-80);}.cls-87{fill:url(#linear-gradient-81);}.cls-88{fill:url(#linear-gradient-82);}.cls-89{fill:url(#linear-gradient-83);}.cls-90{fill:url(#linear-gradient-84);}.cls-91{fill:#8193ca;}</style><linearGradient id="linear-gradient" x1="9.12" y1="196.67" x2="563.63" y2="196.67" gradientTransform="matrix(0.99, -0.01, 0.01, 1.02, -11.41, -29.45)" gradientUnits="userSpaceOnUse"><stop offset="0" stop-color="#dbe2f3"/><stop offset="1" stop-color="#eaeff8"/></linearGradient><linearGradient id="linear-gradient-2" x1="270.9" y1="65.25" x2="-7.97" y2="383.11" gradientUnits="userSpaceOnUse"><stop offset="0" stop-color="#201b59"/><stop offset="1" stop-color="#2d2d84"/></linearGradient><linearGradient id="linear-gradient-3" x1="200.84" y1="144.75" x2="83.85" y2="286.01" gradientUnits="userSpaceOnUse"><stop offset="0" stop-color="#4c57a6"/><stop offset="1" stop-color="#5560ab"/></linearGradient><linearGradient id="linear-gradient-4" x1="266.37" y1="61.65" x2="203.07" y2="141.89" xlink:href="#linear-gradient-3"/><linearGradient id="linear-gradient-5" x1="112.42" y1="145.2" x2="126.58" y2="145.2" gradientTransform="translate(257.51 17.46) rotate(86.67)" xlink:href="#linear-gradient"/><linearGradient id="linear-gradient-6" x1="265.4" y1="154.1" x2="279.56" y2="154.1" gradientTransform="translate(410.49 -126.87) rotate(86.67)" xlink:href="#linear-gradient"/><linearGradient id="linear-gradient-7" x1="175.14" y1="225.02" x2="189.31" y2="225.02" gradientTransform="translate(370.85 5.33) rotate(79.65)" xlink:href="#linear-gradient"/><linearGradient id="linear-gradient-8" x1="202.68" y1="74.28" x2="216.84" y2="74.28" gradientTransform="translate(245.14 -145.41) rotate(79.65)" xlink:href="#linear-gradient"/><linearGradient id="linear-gradient-9" x1="134.88" y1="106" x2="141.01" y2="106" gradientTransform="matrix(1, 0, 0, 1, 0, 0)" xlink:href="#linear-gradient"/><linearGradient id="linear-gradient-10" x1="267.38" y1="115.63" x2="273.89" y2="115.63" gradientTransform="matrix(1, 0, 0, 1, 0, 0)" xlink:href="#linear-gradient"/><linearGradient id="linear-gradient-11" x1="239.75" y1="84.83" x2="244.53" y2="84.83" gradientTransform="matrix(1, 0, 0, 1, 0, 0)" xlink:href="#linear-gradient"/><linearGradient id="linear-gradient-12" x1="134.04" y1="95.3" x2="194.64" y2="95.3" gradientUnits="userSpaceOnUse"><stop offset="0" stop-color="#f37064"/><stop offset="1" stop-color="#f5928f"/></linearGradient><linearGradient id="linear-gradient-13" x1="137.22" y1="70.07" x2="148.74" y2="70.07" gradientUnits="userSpaceOnUse"><stop offset="0" stop-color="#f5928f"/><stop offset="1" stop-color="#f8b2b1"/></linearGradient><linearGradient id="linear-gradient-14" x1="195.77" y1="144.81" x2="306.93" y2="144.81" xlink:href="#linear-gradient-12"/><linearGradient id="linear-gradient-15" x1="258.27" y1="140.54" x2="300.69" y2="140.54" xlink:href="#linear-gradient-13"/><linearGradient id="linear-gradient-16" x1="189.28" y1="147.72" x2="204.4" y2="147.72" gradientUnits="userSpaceOnUse"><stop offset="0" stop-color="#e1483d"/><stop offset="1" stop-color="#e9625a"/></linearGradient><linearGradient id="linear-gradient-17" x1="240.63" y1="146.78" x2="251.23" y2="157.85" xlink:href="#linear-gradient-2"/><linearGradient id="linear-gradient-18" x1="224.27" y1="135.8" x2="235.31" y2="94.23" xlink:href="#linear-gradient-2"/><linearGradient id="linear-gradient-19" x1="254.7" y1="174.57" x2="274.75" y2="189.29" xlink:href="#linear-gradient-2"/><linearGradient id="linear-gradient-20" x1="243.68" y1="148.83" x2="257.29" y2="108.36" xlink:href="#linear-gradient-2"/><linearGradient id="linear-gradient-21" x1="267.55" y1="156.86" x2="281.16" y2="116.39" gradientUnits="userSpaceOnUse"><stop offset="0" stop-color="#101137"/><stop offset="1" stop-color="#1d1753"/></linearGradient><linearGradient id="linear-gradient-22" x1="255" y1="146.65" x2="213" y2="162.5" xlink:href="#linear-gradient-2"/><linearGradient id="linear-gradient-23" x1="217.91" y1="126.16" x2="228.9" y2="117.88" xlink:href="#linear-gradient-13"/><linearGradient id="linear-gradient-24" x1="208.77" y1="84.55" x2="181.54" y2="144.15" gradientUnits="userSpaceOnUse"><stop offset="0" stop-color="#293882"/><stop offset="1" stop-color="#171042"/></linearGradient><linearGradient id="linear-gradient-25" x1="178.51" y1="135.3" x2="207.27" y2="130.48" xlink:href="#linear-gradient-13"/><linearGradient id="linear-gradient-26" x1="190.38" y1="96.87" x2="189.78" y2="110.12" xlink:href="#linear-gradient-13"/><linearGradient id="linear-gradient-27" x1="193.7" y1="86.66" x2="192.8" y2="100.66" xlink:href="#linear-gradient-13"/><linearGradient id="linear-gradient-28" x1="191.15" y1="69.45" x2="195.25" y2="92.87" xlink:href="#linear-gradient-24"/><linearGradient id="linear-gradient-29" x1="188.41" y1="86.32" x2="187.51" y2="100.32" xlink:href="#linear-gradient-13"/><linearGradient id="linear-gradient-30" x1="226.66" y1="126.49" x2="247.37" y2="126.49" xlink:href="#linear-gradient-16"/><linearGradient id="linear-gradient-31" x1="244.02" y1="117.71" x2="231.42" y2="130.49" gradientTransform="translate(242.97 -145.75) rotate(63.65)" xlink:href="#linear-gradient-12"/><linearGradient id="linear-gradient-32" x1="229.18" y1="135.54" x2="212.62" y2="140.08" xlink:href="#linear-gradient-16"/><linearGradient id="linear-gradient-33" x1="215.96" y1="90.78" x2="191.31" y2="132.72" gradientUnits="userSpaceOnUse"><stop offset="0" stop-color="#66cdf3"/><stop offset="1" stop-color="#4a5aa8"/></linearGradient><linearGradient id="linear-gradient-34" x1="208.41" y1="86.34" x2="183.76" y2="128.28" xlink:href="#linear-gradient-33"/><linearGradient id="linear-gradient-35" x1="205.68" y1="84.73" x2="181.03" y2="126.67" xlink:href="#linear-gradient-33"/><linearGradient id="linear-gradient-36" x1="294.78" y1="102.41" x2="359.52" y2="102.41" xlink:href="#linear-gradient-12"/><linearGradient id="linear-gradient-37" x1="304.34" y1="19.18" x2="314.28" y2="67.52" xlink:href="#linear-gradient-13"/><linearGradient id="linear-gradient-38" x1="311.52" y1="17.71" x2="321.45" y2="66.05" xlink:href="#linear-gradient-13"/><linearGradient id="linear-gradient-39" x1="317.63" y1="16.45" x2="327.57" y2="64.79" xlink:href="#linear-gradient-13"/><linearGradient id="linear-gradient-40" x1="323.71" y1="15.2" x2="333.64" y2="63.54" xlink:href="#linear-gradient-13"/><linearGradient id="linear-gradient-41" x1="329.93" y1="13.92" x2="339.87" y2="62.26" xlink:href="#linear-gradient-13"/><linearGradient id="linear-gradient-42" x1="386.64" y1="94.45" x2="398.1" y2="94.45" gradientTransform="matrix(1, 0, 0, 1, 0, 0)" xlink:href="#linear-gradient"/><linearGradient id="linear-gradient-43" x1="390.91" y1="91.71" x2="404.62" y2="91.71" gradientTransform="matrix(1, 0, 0, 1, 0, 0)" xlink:href="#linear-gradient"/><linearGradient id="linear-gradient-44" x1="403.03" y1="93.21" x2="410.02" y2="93.21" gradientTransform="matrix(1, 0, 0, 1, 0, 0)" xlink:href="#linear-gradient"/><linearGradient id="linear-gradient-45" x1="404.77" y1="81.38" x2="417.11" y2="81.38" gradientTransform="matrix(1, 0, 0, 1, 0, 0)" xlink:href="#linear-gradient"/><linearGradient id="linear-gradient-46" x1="411" y1="77.21" x2="421.35" y2="77.21" gradientTransform="matrix(1, 0, 0, 1, 0, 0)" xlink:href="#linear-gradient"/><linearGradient id="linear-gradient-47" x1="445.95" y1="73.23" x2="460.27" y2="73.23" gradientTransform="matrix(1, 0, 0, 1, 0, 0)" xlink:href="#linear-gradient"/><linearGradient id="linear-gradient-48" x1="442.18" y1="76.77" x2="455.27" y2="76.77" gradientTransform="matrix(1, 0, 0, 1, 0, 0)" xlink:href="#linear-gradient"/><linearGradient id="linear-gradient-49" x1="444.9" y1="89.61" x2="450.54" y2="89.61" gradientTransform="matrix(1, 0, 0, 1, 0, 0)" xlink:href="#linear-gradient"/><linearGradient id="linear-gradient-50" x1="440.94" y1="91.92" x2="445.58" y2="91.92" gradientTransform="matrix(1, 0, 0, 1, 0, 0)" xlink:href="#linear-gradient"/><linearGradient id="linear-gradient-51" x1="299.33" y1="90.01" x2="306.04" y2="90.01" gradientTransform="matrix(1, 0, 0, 1, 0, 0)" xlink:href="#linear-gradient"/><linearGradient id="linear-gradient-52" x1="294.83" y1="89.29" x2="300.51" y2="89.29" gradientTransform="matrix(1, 0, 0, 1, 0, 0)" xlink:href="#linear-gradient"/><linearGradient id="linear-gradient-53" x1="290.01" y1="83.54" x2="293.54" y2="83.54" gradientTransform="matrix(1, 0, 0, 1, 0, 0)" xlink:href="#linear-gradient"/><linearGradient id="linear-gradient-54" x1="271.05" y1="78.66" x2="272.94" y2="78.66" gradientTransform="matrix(1, 0, 0, 1, 0, 0)" xlink:href="#linear-gradient"/><linearGradient id="linear-gradient-55" x1="394.49" y1="260.57" x2="395.69" y2="144.31" xlink:href="#linear-gradient-12"/><linearGradient id="linear-gradient-56" x1="302.35" y1="226.26" x2="332.47" y2="332.88" xlink:href="#linear-gradient-12"/><linearGradient id="linear-gradient-57" x1="228.94" y1="336.49" x2="233.76" y2="232.28" xlink:href="#linear-gradient-12"/><linearGradient id="linear-gradient-58" x1="146.12" y1="199.23" x2="146.12" y2="269.11" xlink:href="#linear-gradient-12"/><linearGradient id="linear-gradient-59" x1="457.32" y1="7.11" x2="457.32" y2="102.88" xlink:href="#linear-gradient-13"/><linearGradient id="linear-gradient-60" x1="426.41" y1="7.11" x2="426.41" y2="102.88" xlink:href="#linear-gradient-13"/><linearGradient id="linear-gradient-61" x1="258.46" y1="149.68" x2="266.59" y2="206.15" xlink:href="#linear-gradient-13"/><linearGradient id="linear-gradient-62" x1="225.82" y1="154.38" x2="233.95" y2="210.85" xlink:href="#linear-gradient-13"/><linearGradient id="linear-gradient-63" x1="439.83" y1="277.42" x2="396.58" y2="443.99" xlink:href="#linear-gradient-2"/><linearGradient id="linear-gradient-64" x1="443.7" y1="278.66" x2="400.6" y2="444.69" xlink:href="#linear-gradient-2"/><linearGradient id="linear-gradient-65" x1="435.87" y1="276.4" x2="392.63" y2="442.96" xlink:href="#linear-gradient-2"/><linearGradient id="linear-gradient-66" x1="406.01" y1="310.83" x2="406.61" y2="345.47" xlink:href="#linear-gradient-13"/><linearGradient id="linear-gradient-67" x1="408.11" y1="328.84" x2="405.08" y2="375.34" gradientUnits="userSpaceOnUse"><stop offset="0" stop-color="#cb266e"/><stop offset="1" stop-color="#4c286e"/></linearGradient><linearGradient id="linear-gradient-68" x1="371.29" y1="316.81" x2="414.8" y2="316.81" xlink:href="#linear-gradient-13"/><linearGradient id="linear-gradient-69" x1="413.29" y1="329.5" x2="421.1" y2="300.67" xlink:href="#linear-gradient-16"/><linearGradient id="linear-gradient-70" x1="378.85" y1="326.93" x2="375.82" y2="373.43" xlink:href="#linear-gradient-67"/><linearGradient id="linear-gradient-71" x1="409.15" y1="265.18" x2="446.36" y2="265.18" xlink:href="#linear-gradient-3"/><linearGradient id="linear-gradient-72" x1="418.09" y1="243.67" x2="420.65" y2="263.24" xlink:href="#linear-gradient-13"/><linearGradient id="linear-gradient-73" x1="413.69" y1="232.55" x2="412.34" y2="251.07" xlink:href="#linear-gradient-13"/><linearGradient id="linear-gradient-74" x1="362.49" y1="603.35" x2="330.25" y2="636.89" gradientTransform="translate(-214.19 -104.74) rotate(-33.31)" xlink:href="#linear-gradient-2"/><linearGradient id="linear-gradient-75" x1="418.71" y1="232.91" x2="417.36" y2="251.44" xlink:href="#linear-gradient-13"/><linearGradient id="linear-gradient-76" x1="432.65" y1="281.28" x2="473.52" y2="281.28" xlink:href="#linear-gradient-13"/><linearGradient id="linear-gradient-77" x1="376.82" y1="617.12" x2="344.58" y2="650.66" gradientTransform="translate(-214.19 -104.74) rotate(-33.31)" xlink:href="#linear-gradient-2"/><linearGradient id="linear-gradient-78" x1="394.58" y1="284.11" x2="429.37" y2="284.11" xlink:href="#linear-gradient-2"/><linearGradient id="linear-gradient-79" x1="365.17" y1="271.05" x2="410.77" y2="271.05" xlink:href="#linear-gradient-2"/><linearGradient id="linear-gradient-80" x1="336.58" y1="288.27" x2="472.67" y2="288.27" xlink:href="#linear-gradient-3"/><linearGradient id="linear-gradient-81" x1="344.4" y1="318.1" x2="371.26" y2="318.1" xlink:href="#linear-gradient-3"/><linearGradient id="linear-gradient-82" x1="347.5" y1="318.1" x2="374.36" y2="318.1" xlink:href="#linear-gradient-3"/><linearGradient id="linear-gradient-83" x1="440.97" y1="318.1" x2="467.84" y2="318.1" xlink:href="#linear-gradient-3"/><linearGradient id="linear-gradient-84" x1="444.07" y1="318.1" x2="470.94" y2="318.1" xlink:href="#linear-gradient-3"/></defs><title>Asset 1</title><g id="Layer_2" data-name="Layer 2"><g id="Layer_1-2" data-name="Layer 1"><path class="cls-1" d="M126.19,331.36S30.56,337,25.29,311.16s18.65-12.2,16-24.42-49-30.36-40.17-78.35,40-35.61,50.06-59.47-42.52-50.8-6.89-95.8,63.84-6.75,86.63-7.79S149,1.63,192.31,0s42.74,52.41,69.24,53.84,16.14-18.3,55.95-13,35.5,26,75.2,16.25S475.16,13,520.16,55.86s-15.49,87.32-9.1,112.14,22,12.46,34.72,41.3-29.66,46.11-23.49,74-55.93,67-116.69,47.79S126.19,331.36,126.19,331.36Z"/><path class="cls-2" d="M182.2,316.34s-19.08-38.81-42.09-39.86-59.93,10-89.89-44.35c-17.54-31.84-25.69-45.52-29.43-51.38a4.09,4.09,0,0,1,2.26-6.12c18.37-5.57,79.45-20.93,110.18,10.21C169.66,221.74,182.2,316.34,182.2,316.34Z"/><path class="cls-3" d="M43.94,183.32c1.9.49,3.76,1,5.62,1.6.93.28,1.85.59,2.77.9s1.85.6,2.76.93c1.83.65,3.67,1.28,5.48,2l2.73,1L66,190.83l2.7,1.1,2.68,1.15,2.68,1.16c.89.39,1.77.81,2.65,1.21l2.65,1.23,1.32.61,1.31.65,5.23,2.59c3.43,1.82,6.9,3.61,10.25,5.58l2.53,1.45,1.27.73,1.25.76,5,3.06,1.24.77,1.22.81,2.43,1.62,2.43,1.62,1.22.81,1.19.85c3.16,2.29,6.37,4.47,9.43,6.95.78.59,1.52,1.24,2.28,1.86s1.51,1.25,2.25,1.89l2.19,2,1.09,1,1.06,1,2.13,2,2.06,2.09c1.39,1.38,2.68,2.86,4,4.29a163.73,163.73,0,0,1,14.34,18.55,179.51,179.51,0,0,1,11.69,20.28q2.58,5.25,4.82,10.66c1.5,3.61,2.87,7.23,4,11a1.15,1.15,0,0,1-2.18.73l0,0a170.37,170.37,0,0,0-9.39-21,195.47,195.47,0,0,0-11.85-19.71,172.6,172.6,0,0,0-14.18-18,144.69,144.69,0,0,0-16.64-15.71,283.07,283.07,0,0,0-38.56-25.17l-5.1-2.69-1.28-.67-1.29-.64L75.54,198c-.86-.43-1.72-.87-2.59-1.28l-2.61-1.23-2.61-1.23L65.08,193a223,223,0,0,0-21.49-8.46h0a.65.65,0,0,1,.37-1.25Z"/><path class="cls-4" d="M303.75,150.38A106.25,106.25,0,0,1,197.49,256.63C138.81,256.63,88.61,207,88.61,148.3S138.81,44.13,197.49,44.13A106.25,106.25,0,0,1,303.75,150.38Z"/><path class="cls-2" d="M97,124.92a1.1,1.1,0,0,1-1.07-1.39,96.31,96.31,0,0,1,4.36-12.71,1.1,1.1,0,1,1,2,.86A94.08,94.08,0,0,0,98,124.1,1.1,1.1,0,0,1,97,124.92Z"/><path class="cls-2" d="M113.19,91.71a1.1,1.1,0,0,1-.88-1.77c19.76-26.2,51.58-41.84,85.12-41.84a101.54,101.54,0,0,1,41.19,8.63,1.1,1.1,0,0,1-.89,2,99.34,99.34,0,0,0-40.3-8.45c-32.86,0-64,15.31-83.36,41A1.1,1.1,0,0,1,113.19,91.71Z"/><path class="cls-5" d="M289.29,150.38a92,92,0,0,1-92,92c-50.8,0-94.25-43-94.25-93.77s43.45-90.17,94.25-90.17A92,92,0,0,1,289.29,150.38Z"/><path class="cls-6" d="M289.29,150.38a92,92,0,0,0-92-92A96.45,96.45,0,0,0,127,88.61l70.85,59,14.57,93.55A92,92,0,0,0,289.29,150.38Z"/><circle class="cls-7" cx="119.5" cy="145.2" r="7.08" transform="translate(-32.4 256.06) rotate(-86.67)"/><circle class="cls-8" cx="272.48" cy="154.1" r="7.08" transform="translate(102.81 417.17) rotate(-86.67)"/><circle class="cls-9" cx="182.23" cy="225.02" r="7.08" transform="translate(-71.88 363.85) rotate(-79.65)"/><circle class="cls-10" cx="209.76" cy="74.28" r="7.08" transform="translate(99 267.28) rotate(-79.65)"/><path class="cls-11" d="M233.84,222.11c.72,1.82.54,3.52-.4,3.8s-2.29-1-3-2.78-.54-3.52.4-3.8S233.12,220.29,233.84,222.11Z"/><path class="cls-11" d="M172.3,79.12c.72,1.82.54,3.52-.4,3.8s-2.29-1-3-2.78-.54-3.52.4-3.8S171.58,77.31,172.3,79.12Z"/><path class="cls-11" d="M266,194.93c1.56,1.18,2.29,2.72,1.63,3.45s-2.45.37-4-.81-2.29-2.72-1.63-3.45S264.42,193.75,266,194.93Z"/><path class="cls-12" d="M139.14,104.68c1.56,1.18,2.29,2.72,1.63,3.45s-2.45.37-4-.81-2.29-2.72-1.63-3.45S137.58,103.5,139.14,104.68Z"/><path class="cls-13" d="M270,114c1.76-.84,3.47-.77,3.82.15s-.81,2.35-2.57,3.19-3.47.77-3.82-.15S268.25,114.81,270,114Z"/><path class="cls-11" d="M131.47,184.95c1.76-.84,3.47-.77,3.82.15s-.81,2.35-2.57,3.19-3.47.77-3.82-.15S129.71,185.79,131.47,184.95Z"/><path class="cls-14" d="M240.74,83.73c1.07-1.63,2.56-2.46,3.34-1.86s.53,2.42-.54,4.06-2.56,2.46-3.34,1.86S239.67,85.36,240.74,83.73Z"/><path class="cls-11" d="M159.19,216.32c1.07-1.63,2.56-2.46,3.34-1.86s.53,2.42-.54,4.06-2.56,2.46-3.34,1.86S158.12,218,159.19,216.32Z"/><path class="cls-15" d="M194.45,144.93l-30.09-56a1.63,1.63,0,0,1,1.43-2.4h7.33a1.63,1.63,0,0,0,1.19-2.74l-37.45-40a1.63,1.63,0,0,0-2.77,1.5L147,97.9a1.63,1.63,0,0,0,2.78.72l5.92-6.39a1.63,1.63,0,0,1,2.58.25l33.34,54.07a1.63,1.63,0,0,0,2.21.55h0A1.63,1.63,0,0,0,194.45,144.93Z"/><path class="cls-16" d="M148,91.4a.74.74,0,0,1-.73-.62c-.15-.81-5.27-21.33-10-40.28a1.41,1.41,0,0,1,2.42-1.27L147.4,58a.74.74,0,0,1-1.11,1l-7.53-8.57c4.53,18.1,9.91,39.65,10,40.16a.74.74,0,0,1-.63.83Z"/><path class="cls-17" d="M197.42,150.78,253,149a1.63,1.63,0,0,1,1.47,2.38l-3.37,6.5a1.63,1.63,0,0,0,1.89,2.32l52.75-14.85a1.63,1.63,0,0,0-.06-3.15L253,129.44a1.63,1.63,0,0,0-1.92,2.13l2.94,8.2a1.63,1.63,0,0,1-1.41,2.17l-55.38,5.58a1.63,1.63,0,0,0-1.5,1.71h0A1.63,1.63,0,0,0,197.42,150.78Z"/><path class="cls-18" d="M288.11,148.17a.74.74,0,0,1-.18-1.45L299,144c-18.16-4.31-39.76-9.44-40.25-9.62a.74.74,0,0,1,.48-1.39c.67.2,15.75,3.8,40.38,9.64a1.41,1.41,0,0,1,0,2.73l-11.33,2.81ZM299.27,144h0Z"/><circle class="cls-19" cx="196.84" cy="147.72" r="7.56"/><path class="cls-20" d="M237.68,141.06s-2.92.15-3.28,6.17a34.74,34.74,0,0,0,15.94,7.52c.69.11-1-4.69-1.21-5.34C247.95,146.32,244.23,144.33,237.68,141.06Z"/><path class="cls-21" d="M204.75,134h6.17s18.94-20.92,31.36-23c0,0,8.65,11-.46,31.66a3,3,0,0,1-4.31,1.42,2.47,2.47,0,0,1-1-1.17l.73-17.61s-16.15,14.13-19,16.86S201.21,143.18,204.75,134Z"/><path class="cls-22" d="M264.4,177.9a23.2,23.2,0,0,0-12.65-5.54l-2,1.23a21.92,21.92,0,0,0,3.63,3.89c2.15,1.25,5.48,2.94,8.24,3.31S264.68,179.54,264.4,177.9Z"/><path class="cls-23" d="M249.13,149.41c-1.59.52-2.29,2.77-6.34,1.28a35.78,35.78,0,0,1-8.31-4.38c0,.29-.06.59-.08.92,0,0,7.15,6.8,16.31,8.25a.91.91,0,0,0,1-1.23A23,23,0,0,0,249.13,149.41Z"/><path class="cls-24" d="M266.35,179.84a21.34,21.34,0,0,0-1.95-1.93c.27,1.63-.12,3.25-2.8,2.9s-6.08-2.06-8.24-3.31a17.8,17.8,0,0,0,12,4.6A1.36,1.36,0,0,0,266.35,179.84Z"/><path class="cls-25" d="M205,138.45l28.89.31s16.5,13.65,19.49,34.47c0,0,.5,1.53-2.49,1.79a57.28,57.28,0,0,1-16.48-18c-8-14.13-20.81-9.08-20.81-9.08-15.57,5.31-20.9-2.57-21-4.44Z"/><path class="cls-26" d="M205.66,115.18s3.11,15.59,18.35,21.76l5.42-.64,1.28,2-12.72.41a34.78,34.78,0,0,1-16.63-16C201.17,122.32,198,115.77,205.66,115.18Z"/><path class="cls-27" d="M207.32,138.2a83.26,83.26,0,0,1-4.3-19,40.84,40.84,0,0,1,4.21-3.18,1.17,1.17,0,0,0,.46-1.52c-1.19-2.46-8.38-12.14-8.92-12.27-2.93-.73-14.94-6.44-23.39,5.13-3.63,5,.72,20.25,17.19,36.08l.55.1a8.34,8.34,0,0,0,5.42-.8Z"/><path class="cls-28" d="M193.69,121.35s9.83,11.64,22.39,13.34c0,0,3.25-3,5.66-1.9s5.73,5.72,5.73,5.72H211.34s-15.25-.54-22.88-9.79C189.08,125.48,190.91,123.55,193.69,121.35Z"/><path class="cls-29" d="M188,94.11l-2.15,7.17a.79.79,0,0,0,.31.88,8,8,0,0,0,7.45.75,1.17,1.17,0,0,0,.75-1l.51-6.25Z"/><path class="cls-30" d="M200.55,88.3s-1.06,7.43-3.91,9.72-8.42.56-10.3-5l3.74-9.58Z"/><path class="cls-31" d="M189.66,89.6a.37.37,0,0,0,.48-.29,9.61,9.61,0,0,1,.88-3s-.27-1,2.47.5,6.85,3.64,9.27,2.35,4.75-7.58-1.49-6.41a.37.37,0,0,1-.44-.39c.08-1,0-3.43-2.45-4.2a3.48,3.48,0,0,0-4,.92.37.37,0,0,1-.57,0,4.24,4.24,0,0,0-5.24-1.58c-2.24,1-2.58,2.36-2.55,3.22a.37.37,0,0,1-.52.35,2.21,2.21,0,0,0-2.84.84c-1.46,1.83.63,3.41,1.25,3.83a.37.37,0,0,1,.17.3c0,1,.15,5.1,2.23,7.43a.37.37,0,0,0,.62-.11l1.6-3.81a.37.37,0,0,1,.45-.21Z"/><path class="cls-32" d="M189.7,90.37s-1-4-2.46-2.69.39,4.13,2.09,4.68Z"/><path class="cls-33" d="M226.66,139.41l7.24-24.16a2.47,2.47,0,0,1,2.2-1.75l9.78-.67a1.39,1.39,0,0,1,1.4,1.84l-8.1,23.07a2,2,0,0,1-1.71,1.35l-9.63,1.07Z"/><ellipse class="cls-34" cx="238.91" cy="122.89" rx="2.21" ry="1.24" transform="translate(22.74 282.42) rotate(-63.65)"/><path class="cls-35" d="M227.85,140.16h0l-20.52-1a.92.92,0,1,1,.09-1.84l20.52,1a.92.92,0,0,1,0,1.84Z"/><path class="cls-36" d="M203,119.43h0a.18.18,0,0,1-.18-.18,43.54,43.54,0,0,0-1.66-10,.18.18,0,0,1,.35-.1,43.92,43.92,0,0,1,1.67,10.13A.18.18,0,0,1,203,119.43Z"/><path class="cls-37" d="M193.69,121.53a.18.18,0,0,1-.14-.07c0-.06-4.53-5.76-6.08-9.68a.18.18,0,0,1,.34-.14c1.52,3.86,6,9.53,6,9.59a.18.18,0,0,1-.14.3Z"/><path class="cls-38" d="M187.39,130.26l-.14-.06c-6.5-2.78-10.51-10.54-10.55-10.62a.18.18,0,1,1,.33-.17c0,.08,3.94,7.61,10.23,10.39l.66-.93a.18.18,0,1,1,.3.21Z"/><path class="cls-2" d="M183.49,340.58c2.27,1.75-17.34-36.74-15-90.45,1.1-25.31,7.3-56-4.26-70.71-9.62-12.22-50.44-14-63.86-14.31a2,2,0,0,0-1.59,3.21c5.15,6.47,15.92,21.47,16.86,34.56,1.24,17.26,14.65,30.81,28,36.44s20.51,9.94,22.76,33.55S177.06,335.62,183.49,340.58Z"/><path class="cls-3" d="M117.16,175.71a63.92,63.92,0,0,1,23,11,50.19,50.19,0,0,1,9.25,9,43.6,43.6,0,0,1,6.45,11.22l.57,1.52c.19.51.33,1,.49,1.55.33,1,.6,2.06.87,3.09q.82,3.07,1.6,6.15,1.56,6.16,2.91,12.36c1.81,8.27,3.35,16.6,4.37,25a.45.45,0,0,1-.89.14h0c-.78-4.13-1.63-8.27-2.56-12.38s-1.86-8.23-2.86-12.32-2-8.19-3.09-12.27q-.78-3.06-1.62-6.11l-.41-1.53c-.14-.51-.3-1-.45-1.48s-.28-1-.46-1.47l-.54-1.45a43.21,43.21,0,0,0-6-10.74,47.65,47.65,0,0,0-4.09-4.66c-.36-.37-.73-.74-1.11-1.09s-.75-.72-1.13-1.07c-.78-.68-1.56-1.38-2.38-2a64.59,64.59,0,0,0-10.48-6.82A67.67,67.67,0,0,0,117,176.41h0a.36.36,0,0,1,.19-.69Z"/><path class="cls-2" d="M344.73,340.62c-1.95,2.46,8.67-43.72-8.12-100.25-7.91-26.64-22.69-57.69-14.3-76.39,7-15.56,49.93-28.38,64.15-32.24a2.17,2.17,0,0,1,2.55,3c-3.75,8.26-11.22,27.09-8.74,41.27,3.28,18.7-7.39,36.68-20.07,46.23S341,238.28,344.92,264,350.26,333.62,344.73,340.62Z"/><path class="cls-3" d="M371.75,148.17a73.93,73.93,0,0,0-11,8.23,70.83,70.83,0,0,0-9.36,10c-.7.9-1.35,1.84-2,2.78-.32.47-.62,1-.93,1.44l-.46.72-.43.74a52.36,52.36,0,0,0-3.12,6.06,47.41,47.41,0,0,0-3.58,13.06l-.19,1.69c-.06.56-.06,1.13-.1,1.69s-.07,1.12-.08,1.7l0,1.73c0,2.31-.08,4.63-.09,6.94l0,6.94,0,6.94q.05,6.94.26,13.88c.11,4.62.32,9.25.61,13.86h0a.45.45,0,0,1-.89.08c-1.14-9.24-1.7-18.51-2-27.8q-.2-7-.18-13.93c0-2.32,0-4.64.07-7l0-1.74c0-.58.05-1.18.08-1.77s0-1.19.11-1.77l.21-1.77a47.8,47.8,0,0,1,3.86-13.63,55.16,55.16,0,0,1,7.43-12,70.35,70.35,0,0,1,21.49-17.8.36.36,0,0,1,.36.63Z"/><g class="cls-39"><path class="cls-40" d="M297.62,88c7.41,2.71,25.38,7.42,49.13,1.1a3.49,3.49,0,0,1,4,1.8c2.19,4.38,6.56,13.41,8.59,19.7a3.26,3.26,0,0,1-2.41,4.2c-9.45,2-37.2,6.22-57.39-9.17a5.23,5.23,0,0,1-1.92-3L294.83,90.5A2.12,2.12,0,0,1,297.62,88Z"/><path class="cls-41" d="M324.95,113.9a.85.85,0,0,1-.8-.56L318,96.23a.85.85,0,0,1,1.6-.57l6.14,17.1a.85.85,0,0,1-.8,1.14Z"/><path class="cls-42" d="M334.09,115.56a.85.85,0,0,1-.76-.48l-9.14-18.89a.85.85,0,0,1,1.53-.74l9.14,18.89a.85.85,0,0,1-.76,1.22Z"/><path class="cls-43" d="M340.34,115.41a.85.85,0,0,1-.77-.49l-9.16-19.86a.85.85,0,0,1,1.54-.71l9.16,19.86a.85.85,0,0,1-.77,1.2Z"/><path class="cls-44" d="M345.25,114.32a.85.85,0,0,1-.8-.58L337.7,93.93a.85.85,0,1,1,1.61-.55l6.75,19.82a.85.85,0,0,1-.8,1.12Z"/><path class="cls-45" d="M352.16,113.9a.85.85,0,0,1-.79-.55L343.28,92a.85.85,0,0,1,1.59-.6L353,112.75a.85.85,0,0,1-.79,1.15Z"/></g><g class="cls-46"><path class="cls-2" d="M370.88,94.4l7.29,14.87a2.93,2.93,0,0,0,3,1.62c7.11-.88,30.93-4.88,49.3-20.46a4,4,0,0,0,1.19-4.23l-8.87-27.59a3.55,3.55,0,0,0-4.43-2.31c-5.34,1.67-16,6.32-25.18,18.43-5.59,7.39-15.42,12.55-20.58,14.89A3.54,3.54,0,0,0,370.88,94.4Z"/><path class="cls-47" d="M397.26,104.78a.85.85,0,0,1-.76-.46l-9.77-19a.85.85,0,1,1,1.51-.78l9.77,19a.85.85,0,0,1-.75,1.24Z"/><path class="cls-48" d="M403.77,103.23a.85.85,0,0,1-.74-.43L391,81.46a.85.85,0,1,1,1.48-.83l12,21.34a.85.85,0,0,1-.74,1.27Z"/><path class="cls-49" d="M409.17,100.32a.85.85,0,0,1-.78-.52L403.1,87.27a.85.85,0,0,1,1.56-.66L410,99.14a.85.85,0,0,1-.78,1.18Z"/><path class="cls-50" d="M416.26,95.91a.85.85,0,0,1-.79-.54L404.83,68a.85.85,0,1,1,1.58-.62l10.64,27.37a.85.85,0,0,1-.79,1.16Z"/><path class="cls-51" d="M420.5,93a.85.85,0,0,1-.81-.61L411,62.51a.85.85,0,1,1,1.63-.47l8.66,29.89A.85.85,0,0,1,420.5,93Z"/></g><path class="cls-2" d="M405.6,89.23c2.06,3.53,6.42,11.5,6.78,16a1.58,1.58,0,0,0,1.46,1.46c7.18.53,38.49,1.51,52.31-19.91a1.57,1.57,0,0,0,.17-1.31c-1.27-4.1-8-25.33-15.47-36.88a1.58,1.58,0,0,0-2.61-.05c-5.13,7.19-24.5,33-41.73,38.36A1.57,1.57,0,0,0,405.6,89.23Z"/><path class="cls-52" d="M459.42,88.75a.85.85,0,0,1-.84-.75c-1.4-11.49-12.38-28.81-12.49-29a.85.85,0,0,1,1.43-.91c.46.72,11.3,17.82,12.75,29.69a.85.85,0,0,1-.74.95Z"/><path class="cls-53" d="M454.42,91a.85.85,0,0,1-.83-.67C451.8,82,442.37,64,442.28,63.83a.85.85,0,0,1,1.5-.79c.39.75,9.63,18.37,11.48,26.9a.85.85,0,0,1-.65,1Z"/><path class="cls-54" d="M449.69,94.88a.85.85,0,0,1-.78-.5L445,85.53a.85.85,0,0,1,1.55-.69l3.95,8.85a.85.85,0,0,1-.77,1.2Z"/><path class="cls-55" d="M444.73,96.79a.85.85,0,0,1-.8-.56l-2.93-8a.85.85,0,1,1,1.59-.58l2.93,8a.85.85,0,0,1-.8,1.14Z"/><g class="cls-46"><path class="cls-2" d="M263.78,64c6.1,3.87,24.54,14.77,39.07,15.12a1.34,1.34,0,0,1,1.23.93L311,101.5a1.34,1.34,0,0,1-1.5,1.74c-8.07-1.32-36.56-6.9-47.48-21.33a1.35,1.35,0,0,1-.27-.81V65.15A1.34,1.34,0,0,1,263.78,64Z"/><path class="cls-56" d="M305.19,99.58a.85.85,0,0,1-.82-.61l-5-17.44a.85.85,0,1,1,1.63-.47l5,17.44a.85.85,0,0,1-.82,1.08Z"/><path class="cls-57" d="M299.66,99a.85.85,0,0,1-.83-.66l-4-17.66a.85.85,0,1,1,1.66-.37l4,17.66a.85.85,0,0,1-.64,1Z"/><path class="cls-58" d="M292.69,88.66a.85.85,0,0,1-.82-.65c-.72-2.95-1.92-8-1.85-8.81a.85.85,0,0,1,1.69.13c0,.6.92,4.67,1.81,8.28a.85.85,0,0,1-.62,1Z"/><path class="cls-59" d="M272.09,87.32a.85.85,0,0,1-.85-.82c-.43-15.19,0-15.85.12-16.09a.85.85,0,0,1,1.51.77c-.21,1-.12,8.56.07,15.27a.85.85,0,0,1-.82.87Zm.73-16h0Z"/></g><path class="cls-60" d="M324.53,315,396.59,177H381.82a3.22,3.22,0,0,1-2.49-5.27l76.81-93.61a5.42,5.42,0,0,1,9.6,3.75l-5.4,91.54a9.15,9.15,0,0,1-10.17,8.55l-10.29-1.18-71.5,154.85A11.38,11.38,0,0,1,358,342.2H333.25Z"/><path class="cls-61" d="M264.94,218.18l50.88,113a18.66,18.66,0,0,0,17,11h26.23a9.58,9.58,0,0,0,8.37-4.93l.93-1.68h0a7.5,7.5,0,0,1-6.68-4.09L293.9,198.68Z"/><path class="cls-62" d="M300.75,212.09h0a11.13,11.13,0,0,0-16.16,2.57L209.79,327a32.31,32.31,0,0,1-26.9,14.41H172.37l-8.57-24.68S233.34,210.15,251.26,194c0,0,17.85-16.09,35.45-3.92a29.37,29.37,0,0,1,10.34,13Z"/><path class="cls-63" d="M82.44,250.41S95,234.76,119.23,232.33c0,0,11.52,3.93,34.48,45.06s38.2,59.9,56.08,49.65l-1.48,2.46a27,27,0,0,1-23.1,13.05h-9.89a33.83,33.83,0,0,1-27.47-14.07C130,303.64,93.42,254.27,82.44,250.41Z"/><path class="cls-64" d="M457.07,110.86H457a.8.8,0,0,1-.71-.89l.51-4.47a.8.8,0,1,1,1.59.18l-.51,4.47A.8.8,0,0,1,457.07,110.86Z"/><path class="cls-65" d="M393,167.28a.8.8,0,0,1-.63-1.29l63.42-82.41a2.75,2.75,0,0,1,4.91,2l-1.12,9.88a.8.8,0,1,1-1.59-.18l1.12-9.88a1.15,1.15,0,0,0-2-.83L393.59,167A.8.8,0,0,1,393,167.28Z"/><path class="cls-66" d="M249.07,253.67a.8.8,0,0,1-.66-1.25l32.8-48.62a5.87,5.87,0,0,1,10.17.77.8.8,0,0,1-1.45.69,4.27,4.27,0,0,0-7.39-.56l-32.8,48.62A.8.8,0,0,1,249.07,253.67Z"/><path class="cls-67" d="M240.55,266.31a.8.8,0,0,1-.66-1.25l2.1-3.12a.8.8,0,0,1,1.33.9l-2.1,3.12A.8.8,0,0,1,240.55,266.31Z"/><path class="cls-68" d="M362.19,342.06a.31.31,0,0,1-.54-.28,88.53,88.53,0,0,0,4.91-34.93c-1.23-21.91-17.33-74.8,24.29-84.37,36.67-8.43,58.34-10.28,68.5-17.4a2.19,2.19,0,0,1,3.45,1.86c-.47,13.11-3.89,47.71-26.8,56.3-28.43,10.66-56-1-65.09,9.22C362.12,282.39,376.94,320.45,362.19,342.06Z"/><path class="cls-3" d="M364.53,280.43a69,69,0,0,1-.16-7.1c.06-2.36.2-4.71.44-7.06a72.32,72.32,0,0,1,2.78-13.94,56.2,56.2,0,0,1,2.57-6.71,45.09,45.09,0,0,1,3.62-6.29,35.94,35.94,0,0,1,4.83-5.52l1.42-1.18c.24-.19.47-.4.72-.58l.76-.53c.51-.34,1-.73,1.54-1l1.61-.91.4-.23.42-.19.84-.38a16.35,16.35,0,0,1,1.71-.71l1.75-.6c.58-.21,1.17-.32,1.75-.49a41.72,41.72,0,0,1,7.16-1.13,70.09,70.09,0,0,1,14.18.84c4.59.61,9.11,1.06,13.56.38a34.51,34.51,0,0,0,12.66-4.84h0a.42.42,0,0,1,.47.69,36.93,36.93,0,0,1-6,3.75,29.93,29.93,0,0,1-6.76,2.38,35.36,35.36,0,0,1-7.15.75c-2.39,0-4.75-.17-7.07-.36s-4.61-.42-6.89-.52A50.7,50.7,0,0,0,399,229a38.45,38.45,0,0,0-6.58,1.17c-.53.16-1.09.28-1.6.47l-1.55.54a13.66,13.66,0,0,0-1.51.64l-.74.34-.37.17-.35.2-1.42.81c-.48.26-.9.61-1.35.92l-.67.47c-.22.15-.42.35-.63.52l-1.25,1.05a34.63,34.63,0,0,0-4.34,4.95,46.54,46.54,0,0,0-5.87,12c-.69,2.15-1.31,4.34-1.8,6.56s-.88,4.47-1.22,6.73a93.9,93.9,0,0,0-.95,13.68v0a1.11,1.11,0,0,1-2.22.09Z"/><path class="cls-68" d="M168.21,341.46c1.6.64-10.26-15.62-12.62-30.79s-8.51-40.83-23.28-55-29.32-14.12-46,1.92c-13.89,13.37-22.7,20.3-28.12,22a2.1,2.1,0,0,0-1.08,3.19c4.23,6.16,15.82,20.13,32.55,17.32,21.34-3.58,45.92-20.26,55.07-9.44s8.81,17.45,9.63,22.94S157.63,337.21,168.21,341.46Z"/><path class="cls-3" d="M94.38,275.62a48.38,48.38,0,0,1,7.13-6.78,40.26,40.26,0,0,1,8.48-5.17,28.23,28.23,0,0,1,4.78-1.62,21.08,21.08,0,0,1,5.09-.55c.43,0,.86,0,1.29.07s.87.09,1.28.16l2.46.49,2.42.66,2.37.85a28.52,28.52,0,0,1,8.51,5.35,35.68,35.68,0,0,1,6.3,7.72l.66,1.05c.22.35.39.72.59,1.09.38.73.78,1.45,1.15,2.19.68,1.5,1.4,3,2,4.52a82,82,0,0,1,3,9.32.4.4,0,0,1-.76.24h0c-1.1-3-2.19-6.08-3.54-9-.63-1.48-1.39-2.89-2.11-4.31-.38-.7-.8-1.38-1.2-2.07s-.84-1.35-1.28-2a35.6,35.6,0,0,0-6.15-7.14,27.6,27.6,0,0,0-7.95-4.84l-2.21-.78-2.27-.61-2.31-.45c-.38-.07-.75-.1-1.13-.15s-.75,0-1.13-.07a18.83,18.83,0,0,0-4.55.46,26.27,26.27,0,0,0-4.45,1.38,44.62,44.62,0,0,0-8.31,4.57,66.46,66.46,0,0,0-7.5,6h0a.42.42,0,0,1-.6-.57Z"/><rect class="cls-69" x="425.69" y="310.59" width="2.9" height="31.36"/><path class="cls-70" d="M416.33,340.66H438a1.89,1.89,0,0,1,1.89,1.89v0a0,0,0,0,1,0,0h-25.4a0,0,0,0,1,0,0v0a1.89,1.89,0,0,1,1.89-1.89Z"/><rect class="cls-71" x="411.68" y="303.56" width="31.93" height="9.06" rx="3.12" ry="3.12"/><path class="cls-72" d="M405.74,289.68a25.24,25.24,0,0,0-9.15,3.91,2.41,2.41,0,0,0-1.07,2.31,102.38,102.38,0,0,0,10.83,34,3.66,3.66,0,0,1,.35,2.51l-1.37,6.36-2.53,2.38h6.53l4.35-11.76-1.86-.59a3.52,3.52,0,0,1-2.46-3.29l-.22-12.62a14.35,14.35,0,0,0-3.45-9.5l10.42-.51Z"/><path class="cls-73" d="M400.25,342.28c-.59.78,6.4,1.8,9.93.1,0,0,4.9-8.52,4.9-12.91,0,0-.39-.89-3.26-.69,0,0-1.64,10.09-3.38,11.22s-4.86.11-4.86.11A10.22,10.22,0,0,0,400.25,342.28Z"/><path class="cls-74" d="M414.8,303.56c-.06-.1-11.22-1.34-11.22-1.34a25.81,25.81,0,0,1-.78,8.07c-1.14,4.67-17.54,24.92-17.54,24.92l1.72,5.45a27.65,27.65,0,0,1-15.69.94l10.65-6.39s10-34,16.08-40l11.19-3.87Z"/><path class="cls-75" d="M439.84,283.79s6.43,9.57,7,13.94-1.76,6.14-8.51,6.43-24.77.29-24.77.29L398.14,291.3s11.21-4,14.12-5.13S439.84,283.79,439.84,283.79Z"/><path class="cls-76" d="M386.33,338.83s1.85,1.79.6,3.79c0,0-14.66,2.6-18.64,1.42,0,0,.83-1.89,5.31-4l-.33.25a.54.54,0,0,0,.35,1C376.57,341,382.69,340.51,386.33,338.83Z"/><path class="cls-77" d="M422.44,282.52a146.89,146.89,0,0,1-11.18-11.86,10,10,0,0,1-1.7-9c1.68-5.67,4.68-11.55,4.95-12.46.42-1.4,8.82-1.34,8.82-1.34s16.53,10.73,23,28.9L439.06,279a85.24,85.24,0,0,0-8.58-11.85s7.38,9.75,7.64,13.74Z"/><path class="cls-78" d="M413.5,241.34c.09.29,2.28,7.56,2.45,7.71s4.81.4,7-1.09l-3.7-7.75Z"/><path class="cls-79" d="M408.26,231.89s-2.39,3.57-1.5,9.83,4,7.36,6.33,6.28a11.82,11.82,0,0,0,6.74-8.48C421.14,234.24,411.47,227.41,408.26,231.89Z"/><path class="cls-80" d="M415.91,238.44s-2.1-8.63-8.36-4.64l-.79,2s-4.82-2.38-2.31-6.69a9.5,9.5,0,0,1,14.07-2.33c4.9,4,6.1,7.85,5,12s-3.94,2.13-3.94,2.13,0-3.2-1.42-4-1.77,1.52-1.77,1.52Z"/><path class="cls-81" d="M417.12,238.76s-1.11-4.43,1.52-4.1.82,4.23,0,5.63Z"/><path class="cls-82" d="M407.18,283.05l5.5-5.31L420.3,281s7.58,1.17,11.92,0l4.34-1.17,9.8-3.05,1.54,4.35a2.62,2.62,0,0,1-1,3,17.3,17.3,0,0,1-2.48,1.54c-1.29.56-31.83-.39-31.83-.39Z"/><path class="cls-83" d="M418.56,227.86a1.7,1.7,0,0,1-.71-2.92c3.26-3,9.18-6,16.63.23,8.38,7,13,10.3,15.23,9.92a1.71,1.71,0,0,1,1.8,2.57,7.24,7.24,0,0,1-3.71,2.63C432.46,246.14,426.38,229.57,418.56,227.86Z"/><path class="cls-84" d="M428,285.55h-.07l-31.93,0a1.43,1.43,0,1,1,0-2.86l31.93,0a1.43,1.43,0,0,1,.07,2.86Z"/><path class="cls-85" d="M367.3,256.56h26.59a5.07,5.07,0,0,1,4.58,2.91l12.29,26.07h-33a3.08,3.08,0,0,1-2.86-1.95l-9.53-24.12A2.12,2.12,0,0,1,367.3,256.56Z"/><ellipse class="cls-2" cx="384.04" cy="270.57" rx="2.1" ry="3.41" transform="translate(-64.43 130.68) rotate(-17.84)"/><path class="cls-86" d="M472.64,286.72a1.18,1.18,0,0,0-.28-1,1.35,1.35,0,0,0-1-.45H338.1a1.54,1.54,0,0,0-1.28.66,1.35,1.35,0,0,0-.1,1.36l1.44,2.93a2,2,0,0,0,1.84,1.1H470.43a1.51,1.51,0,0,0,1.5-1.16Z"/><path class="cls-87" d="M345.56,348.47a1.14,1.14,0,0,1-.46-.1,1.21,1.21,0,0,1-.61-1.57L369,288.46a1.16,1.16,0,0,1,1.54-.63,1.21,1.21,0,0,1,.61,1.57l-24.53,58.33A1.17,1.17,0,0,1,345.56,348.47Z"/><path class="cls-88" d="M373.19,348.47a1.17,1.17,0,0,1-1.07-.72l-24.53-58.33a1.21,1.21,0,0,1,.61-1.57,1.16,1.16,0,0,1,1.54.63l24.53,58.33a1.21,1.21,0,0,1-.61,1.57A1.14,1.14,0,0,1,373.19,348.47Z"/><path class="cls-89" d="M442.14,348.47a1.14,1.14,0,0,1-.46-.1,1.21,1.21,0,0,1-.61-1.57l24.53-58.33a1.16,1.16,0,0,1,1.54-.63,1.21,1.21,0,0,1,.61,1.57l-24.53,58.33A1.17,1.17,0,0,1,442.14,348.47Z"/><path class="cls-90" d="M469.77,348.47a1.17,1.17,0,0,1-1.07-.72l-24.53-58.33a1.21,1.21,0,0,1,.61-1.57,1.16,1.16,0,0,1,1.54.63l24.53,58.33a1.21,1.21,0,0,1-.61,1.57A1.14,1.14,0,0,1,469.77,348.47Z"/><path class="cls-2" d="M275.27,320.29a1.36,1.36,0,0,1-1.22-.77l-1.31-2.69a16.6,16.6,0,0,1-4.05-1.13l-2.52,1.63a1.36,1.36,0,0,1-1.58-.07l-3.37-2.64a1.36,1.36,0,0,1-.45-1.52l1-2.83a16.58,16.58,0,0,1-2.07-3.67l-2.93-.63a1.36,1.36,0,0,1-1.07-1.17l-.52-4.26a1.36,1.36,0,0,1,.76-1.39l2.69-1.31a16.64,16.64,0,0,1,1.13-4.05l-1.63-2.52a1.36,1.36,0,0,1,.07-1.58l2.64-3.37a1.36,1.36,0,0,1,1.52-.45l2.83,1a16.58,16.58,0,0,1,3.67-2.07l.63-2.93a1.36,1.36,0,0,1,1.17-1.07l4.26-.52a1.36,1.36,0,0,1,1.39.75l1.31,2.7a16.6,16.6,0,0,1,4.05,1.13l2.52-1.63a1.36,1.36,0,0,1,1.58.07l3.38,2.65a1.36,1.36,0,0,1,.45,1.51l-1,2.83a16.6,16.6,0,0,1,2.07,3.67l2.93.63a1.36,1.36,0,0,1,1.07,1.17l.52,4.26a1.36,1.36,0,0,1-.76,1.39l-2.69,1.31a16.64,16.64,0,0,1-1.13,4.05l1.63,2.52a1.36,1.36,0,0,1-.07,1.58l-2.64,3.37a1.36,1.36,0,0,1-1.51.45l-2.83-1a16.62,16.62,0,0,1-3.67,2.07l-.63,2.93a1.36,1.36,0,0,1-1.17,1.07l-4.26.52Zm-6.77-7,.53.25a14.48,14.48,0,0,0,4.52,1.26l.59.06,1.58,3.25,3.16-.38.76-3.53.55-.2a14.48,14.48,0,0,0,4.09-2.31l.46-.37,3.41,1.18,2-2.51-2-3,.25-.53a14.47,14.47,0,0,0,1.26-4.52l.06-.59,3.24-1.58-.38-3.16-3.53-.76-.2-.55a14.49,14.49,0,0,0-2.31-4.09l-.37-.46,1.18-3.41-2.51-2-3,2-.53-.25a14.48,14.48,0,0,0-4.52-1.26l-.59-.06-1.58-3.25-3.16.38-.76,3.53-.55.2a14.48,14.48,0,0,0-4.09,2.31l-.46.37-3.41-1.18-2,2.51,2,3-.25.53a14.47,14.47,0,0,0-1.26,4.52l-.06.59-3.24,1.58.38,3.16,3.53.76.2.55a14.47,14.47,0,0,0,2.31,4.09l.37.46L263,313.27l2.51,2Zm-3.5,2.26h0Zm-2.22-1.74h0Zm-.26-.86h0Zm0-25.29h0Zm12.55,24a11.4,11.4,0,1,1,11.39-10.36,1.07,1.07,0,1,1-2.13-.2,9.34,9.34,0,0,0,0-2,9.27,9.27,0,1,0-3.52,8.45,1.07,1.07,0,1,1,1.31,1.69,11.4,11.4,0,0,1-5.62,2.31A11.62,11.62,0,0,1,275.07,311.64Z"/><path class="cls-2" d="M275.17,305.15a4.88,4.88,0,1,1,4.55-6.63h0a4.88,4.88,0,0,1-4.55,6.63Zm0-7.62a2.74,2.74,0,1,0,2.55,1.75h0a2.74,2.74,0,0,0-2.55-1.75Z"/><path class="cls-2" d="M244.68,292.57a.94.94,0,0,1-.34-.06l-1.92-.75a.94.94,0,0,1-.6-.91l0-1.29a8.28,8.28,0,0,1-1.3-1.24l-1.29.11a.94.94,0,0,1-.94-.56l-.83-1.89a.94.94,0,0,1,.22-1.07l.95-.88a8.25,8.25,0,0,1,0-1.79l-1-.83a.94.94,0,0,1-.27-1.06l.75-1.92a1,1,0,0,1,.91-.6l1.29,0a8.26,8.26,0,0,1,1.24-1.3l-.11-1.29a.94.94,0,0,1,.56-.94l1.88-.83a.94.94,0,0,1,1.07.22l.87.94a8.26,8.26,0,0,1,1.79,0l.83-1a.94.94,0,0,1,1.06-.27l1.92.75a.94.94,0,0,1,.6.91l0,1.29a8.28,8.28,0,0,1,1.3,1.24l1.28-.11a.94.94,0,0,1,.94.56l.83,1.88a.94.94,0,0,1-.22,1.07l-.95.88a8.25,8.25,0,0,1,0,1.79l1,.83a.94.94,0,0,1,.27,1.06l-.75,1.92a1,1,0,0,1-.91.6l-1.29,0a8.25,8.25,0,0,1-1.24,1.3l.11,1.29a.94.94,0,0,1-.56.94l-1.89.83a.94.94,0,0,1-1.07-.22l-.87-.94a8.3,8.3,0,0,1-1.79,0l-.83,1A.94.94,0,0,1,244.68,292.57Zm-.5-1.37h0Zm5.9-.14h0Zm-.74-.15h0Zm-5.89-.47,1,.41,1.09-1.29.44.06a6.64,6.64,0,0,0,2.17,0l.43-.08,1.15,1.24,1-.45-.14-1.68.35-.27a6.68,6.68,0,0,0,1.5-1.57l.25-.36,1.69.06.41-1-1.29-1.09.06-.44a6.66,6.66,0,0,0,0-2.17l-.08-.43,1.24-1.15-.45-1-1.68.14-.27-.35a6.68,6.68,0,0,0-1.57-1.5l-.36-.25.06-1.69-1-.41-1.09,1.29-.44-.06a6.71,6.71,0,0,0-2.17,0l-.43.08-1.15-1.24-1,.45.14,1.68-.35.27a6.68,6.68,0,0,0-1.5,1.57l-.25.36-1.69-.06-.41,1,1.29,1.09-.06.44a6.68,6.68,0,0,0,0,2.17l.08.43-1.24,1.15.45,1,1.68-.14.27.35a6.67,6.67,0,0,0,1.57,1.5l.36.25Zm7.39.3h0Zm-12-4.66h0Zm.15-.75h0Zm16-.36h0Zm-.1-4.41h0Zm-.17-1.49h0Zm-.66-.39h0Zm.59-.41h0Zm-12-2.45h0Zm8.21-.19h0Zm-1.92-.75h0Zm-5.16-.05h0Zm3.1,13.89a5.77,5.77,0,1,1,5.66-6.94.8.8,0,0,1-1.57.32,4.17,4.17,0,1,0-.68,3.25.8.8,0,1,1,1.31.92,5.79,5.79,0,0,1-4.71,2.44Z"/><path class="cls-2" d="M493.12,262c-10,0-20.79-.77-28-2.22-5.41-1.1-8.25-2.47-8.68-4.19-1.5-5.93-6.38-50.37,1.69-57.35a.53.53,0,0,1,.36-.13c6.69.24,65.47,2.46,69.06,7.18,3.89,5.11-6.8,48.53-10.48,53.38C515.4,261,504.89,262,493.12,262ZM458.71,199.2c-7,6.66-3,49.19-1.21,56.17.15.58,1.2,2.06,7.87,3.42,15.91,3.24,48.26,2.78,50.91-.71,1.73-2.28,5.19-13.82,7.89-26.28,3-13.83,4-24,2.59-25.83C524.27,202.7,484.78,200.14,458.71,199.2Z"/><path class="cls-2" d="M472.26,250.1h-4.72a1,1,0,0,1-1-1V234.94a1,1,0,0,1,1-1h4.72a1,1,0,0,1,1,1v14.11A1,1,0,0,1,472.26,250.1Zm-3.67-2.1h2.62V236h-2.62Z"/><path class="cls-2" d="M481.56,250.1h-6.45a1,1,0,0,1-1-1V225.76a1,1,0,0,1,1-1h6.45a1,1,0,0,1,1,1v23.29A1,1,0,0,1,481.56,250.1Zm-5.4-2.1h4.35V226.81h-4.35Z"/><path class="cls-2" d="M493.7,250.1h-8.95a1,1,0,0,1-1-1V220.84a1,1,0,0,1,1-1h8.95a1,1,0,0,1,1,1v28.22A1,1,0,0,1,493.7,250.1Zm-7.9-2.1h6.85V221.88h-6.85Z"/><path class="cls-2" d="M509.9,250.1H499.19a1,1,0,0,1-1-1V214.92a1,1,0,0,1,1-1H509.9a1,1,0,0,1,1,1v34.14A1,1,0,0,1,509.9,250.1Zm-9.67-2.1h8.62V216h-8.62Z"/><path class="cls-68" d="M357.11,271.18l-1,.46a.28.28,0,0,1-.24-.5h0l1-.43h0a.27.27,0,0,1,.22.49Z"/><path class="cls-68" d="M351.23,273.76l-1,.4a.34.34,0,0,1-.25-.63h0l1-.37h0a.33.33,0,0,1,.24.61Z"/><path class="cls-68" d="M345.21,276l-1,.35a.39.39,0,1,1-.25-.74h0l1-.33a.38.38,0,0,1,.25.73Z"/><path class="cls-68" d="M339.11,278l-1,.31a.44.44,0,0,1-.25-.84h0l1-.29a.43.43,0,0,1,.25.82Z"/><path class="cls-68" d="M332.94,279.77l-1,.28a.48.48,0,0,1-.25-.93h0l1-.26a.48.48,0,0,1,.24.92Z"/><path class="cls-68" d="M326.73,281.37l-1,.25a.53.53,0,1,1-.25-1h0l1-.24a.52.52,0,0,1,.24,1Z"/><path class="cls-68" d="M320.47,282.81l-1,.23a.57.57,0,1,1-.24-1.12h0l1-.21a.57.57,0,0,1,.23,1.11Z"/><path class="cls-68" d="M314.19,284.11l-1.05.2a.61.61,0,0,1-.23-1.2h0l1-.19a.6.6,0,0,1,.22,1.19Z"/><path class="cls-68" d="M307.88,285.26l-1.05.18a.64.64,0,1,1-.22-1.26h0l1.05-.17a.63.63,0,0,1,.21,1.25Z"/><path class="cls-68" d="M301.54,286.3l-1.06.16a.66.66,0,1,1-.2-1.31h0l1.05-.15a.66.66,0,0,1,.2,1.31Z"/><path class="cls-68" d="M295.19,287.22l-1.06.14a.69.69,0,0,1-.18-1.37h0l1.06-.13a.69.69,0,0,1,.18,1.36Z"/><path class="cls-68" d="M288.83,288l-1.06.12a.72.72,0,0,1-.17-1.43h0l1.06-.11a.72.72,0,0,1,.16,1.42Z"/><path class="cls-68" d="M282.45,288.73l-1.06.11a.75.75,0,1,1-.15-1.49h0l1.06-.1a.74.74,0,0,1,.14,1.48Z"/><path class="cls-68" d="M276.06,289.32l-1.07.09a.78.78,0,1,1-.13-1.55h0l1.06-.08a.77.77,0,0,1,.12,1.54Z"/><path class="cls-68" d="M269.66,289.81l-1.07.07a.8.8,0,0,1-.11-1.61h0l1.06-.06a.8.8,0,0,1,.1,1.6Z"/><path class="cls-68" d="M263.25,290.18l-1.07,0a.82.82,0,1,1-.08-1.64h0l1.06,0a.82.82,0,0,1,.08,1.64Z"/><path class="cls-68" d="M256.84,290.43l-1.07,0a.83.83,0,1,1,0-1.66h0l1.06,0a.83.83,0,0,1,0,1.66Z"/><path class="cls-68" d="M250.42,290.58h-1.07a.84.84,0,1,1,0-1.68h1.07a.84.84,0,0,1,0,1.68Z"/><path class="cls-68" d="M244,290.61h-1.07a.85.85,0,1,1,0-1.7H244a.85.85,0,1,1,0,1.69Z"/><path class="cls-68" d="M237.58,290.52l-1.07,0a.86.86,0,1,1,0-1.72h0l1.06,0h0a.86.86,0,0,1,0,1.71Z"/><path class="cls-68" d="M231.15,290.32l-1.07,0a.87.87,0,1,1,.08-1.73h0l1.06,0h0a.87.87,0,0,1-.08,1.73Z"/><path class="cls-68" d="M224.74,290l-1.07-.07a.88.88,0,0,1,.11-1.75h0l1.06.07h0a.88.88,0,0,1-.12,1.75Z"/><path class="cls-68" d="M218.33,289.51l-1.07-.09a.89.89,0,1,1,.15-1.77h0l1.06.09h0a.88.88,0,0,1-.15,1.76Z"/><path class="cls-68" d="M211.93,288.89l-1.07-.12a.9.9,0,0,1,.2-1.78h0l1.06.12h0a.89.89,0,0,1-.2,1.78Z"/><path class="cls-68" d="M205.55,288.13l-1.06-.14a.9.9,0,0,1,.24-1.79h0l1.05.15h0a.9.9,0,0,1-.25,1.79Z"/><path class="cls-68" d="M199.18,287.19l-1.06-.17a.91.91,0,1,1,.3-1.8h0l1,.17h0a.91.91,0,0,1-.3,1.8Z"/><path class="cls-68" d="M192.85,286.06l-1.05-.21a.91.91,0,0,1,.35-1.79h0l1,.2h0a.91.91,0,0,1-.35,1.79Z"/><path class="cls-68" d="M186.55,284.73l-1-.24a.9.9,0,1,1,.41-1.76h0l1,.24h0a.91.91,0,0,1-.4,1.76Z"/><path class="cls-68" d="M180.3,283.18l-1-.28a.89.89,0,1,1,.47-1.73h0l1,.28h0a.9.9,0,0,1-.47,1.73Z"/><path class="cls-68" d="M174.11,281.38l-1-.32a.89.89,0,1,1,.54-1.69h0l1,.32h0a.89.89,0,0,1-.53,1.69Z"/><path class="cls-68" d="M168,279.31l-1-.37a.88.88,0,1,1,.61-1.64h0l1,.37h0a.88.88,0,0,1-.61,1.65Z"/><path class="cls-68" d="M162,276.94l-1-.43a.87.87,0,1,1,.69-1.59h0l1,.42h0a.87.87,0,1,1-.69,1.6Z"/><path class="cls-68" d="M156.15,274.23l-1-.49a.86.86,0,0,1,.78-1.53h0l.94.48h0a.86.86,0,1,1-.78,1.53Z"/><path class="cls-68" d="M150.48,271.12l-.92-.56a.85.85,0,0,1,.88-1.45h0l.9.54h0a.85.85,0,1,1-.88,1.46Z"/><path class="cls-68" d="M145.06,267.57l-.87-.64a.84.84,0,1,1,1-1.36h0l.85.62h0a.84.84,0,1,1-1,1.36Z"/><path class="cls-68" d="M140,263.53l-.8-.72a.83.83,0,0,1,1.11-1.24h0l.78.7h0a.83.83,0,1,1-1.11,1.24Z"/><path class="cls-68" d="M135.37,259l-.72-.81a.82.82,0,1,1,1.23-1.09h0l.7.79h0a.82.82,0,1,1-1.23,1.09Z"/><path class="cls-68" d="M131.34,253.85l-.6-.9a.81.81,0,0,1,1.34-.9v0l.59.87v0a.81.81,0,1,1-1.35.91Z"/><path class="cls-68" d="M128.06,248.23l-.47-1a.78.78,0,0,1,1.41-.68v0l.46.94v0a.79.79,0,1,1-1.41.69Z"/><path class="cls-68" d="M125.62,242.19l-.32-1a.75.75,0,0,1,1.44-.45v0l.32,1v0a.76.76,0,0,1-1.45.46Z"/><path class="cls-68" d="M124.09,235.87l-.17-1.07a.73.73,0,0,1,1.44-.23v0l.17,1v0a.73.73,0,1,1-1.44.24Z"/><path class="cls-68" d="M123.44,229.41l0-1.08a.7.7,0,0,1,1.4,0h0l0,1.05h0a.7.7,0,1,1-1.41,0Z"/><path class="cls-68" d="M123.59,222.93l.1-1.07A.67.67,0,0,1,125,222h0l-.08,1.05h0a.68.68,0,1,1-1.35-.11Z"/><path class="cls-68" d="M124.44,216.51l.2-1.06a.65.65,0,0,1,1.27.24h0l-.19,1h0a.65.65,0,0,1-1.28-.23Z"/><path class="cls-68" d="M125.87,210.22l.29-1a.62.62,0,0,1,1.19.33h0l-.28,1h0a.62.62,0,0,1-1.2-.32Z"/><path class="cls-68" d="M127.79,204.06l.36-1a.59.59,0,0,1,1.11.39h0l-.35,1h0a.6.6,0,1,1-1.13-.39Z"/><path class="cls-68" d="M130.12,198.06l.42-1a.55.55,0,0,1,1,.42h0l-.41,1h0a.55.55,0,0,1-1-.42Z"/><path class="cls-68" d="M132.79,192.21l.47-1a.5.5,0,0,1,.9.44h0l-.46,1h0a.51.51,0,1,1-.92-.44Z"/><path class="cls-68" d="M135.74,186.5l.52-.94a.46.46,0,0,1,.8.43h0l-.5.94h0a.46.46,0,0,1-.82-.44Z"/><path class="cls-68" d="M138.93,180.93l.55-.92a.41.41,0,0,1,.71.42l-.54.92a.42.42,0,0,1-.73-.42Z"/><path class="cls-68" d="M142.31,175.47l.58-.9a.37.37,0,0,1,.62.4l-.57.9a.37.37,0,1,1-.64-.4Z"/><path class="cls-68" d="M145.88,170.15l.61-.88a.31.31,0,0,1,.51.35l-.59.89a.32.32,0,1,1-.53-.35Z"/><path class="cls-2" d="M226.53,115l.75-.77a.53.53,0,0,1,.76.74h0l-.75.76h0a.52.52,0,0,1-.75-.73Z"/><path class="cls-2" d="M231.11,110.5l.79-.73a.55.55,0,1,1,.75.81h0l-.78.72h0a.55.55,0,0,1-.74-.81Z"/><path class="cls-2" d="M235.91,106.22l.82-.69a.58.58,0,0,1,.75.89h0l-.82.68h0a.58.58,0,0,1-.74-.88Z"/><path class="cls-2" d="M240.91,102.17l.85-.65a.61.61,0,0,1,.74,1h0l-.85.64h0a.6.6,0,0,1-.73-1Z"/><path class="cls-2" d="M246.09,98.36l.88-.61a.63.63,0,1,1,.72,1h0l-.88.6h0a.63.63,0,0,1-.71-1Z"/><path class="cls-2" d="M251.44,94.78l.91-.57a.66.66,0,1,1,.7,1.12h0l-.9.56h0a.66.66,0,0,1-.69-1.11Z"/><path class="cls-2" d="M257,91.46l.93-.53a.69.69,0,0,1,.68,1.19h0l-.93.52h0a.68.68,0,0,1-.67-1.19Z"/><path class="cls-2" d="M262.61,88.38l1-.49a.71.71,0,0,1,.65,1.27h0l-1,.48h0a.71.71,0,0,1-.64-1.27Z"/><path class="cls-2" d="M268.39,85.55l1-.45a.74.74,0,0,1,.61,1.35h0l-1,.43h0a.74.74,0,0,1-.61-1.34Z"/><path class="cls-2" d="M274.3,83l1-.4a.76.76,0,1,1,.57,1.42h0l-1,.39h0A.76.76,0,0,1,274.3,83Z"/><path class="cls-2" d="M280.32,80.71l1-.35a.77.77,0,0,1,.51,1.45h0l-1,.35h0a.77.77,0,0,1-.51-1.45Z"/><path class="cls-2" d="M286.44,78.7l1-.31a.78.78,0,0,1,.44,1.49h0l-1,.3h0a.77.77,0,0,1-.44-1.48Z"/><path class="cls-2" d="M292.65,77l1-.26a.78.78,0,0,1,.38,1.52h0l-1,.26h0a.78.78,0,0,1-.38-1.51Z"/><path class="cls-2" d="M298.93,75.53l1.05-.21a.79.79,0,0,1,.31,1.54h0l-1,.21h0a.79.79,0,0,1-.31-1.54Z"/><path class="cls-2" d="M305.27,74.39l1.06-.16a.79.79,0,0,1,.24,1.57h0l-1,.16h0a.79.79,0,0,1-.23-1.57Z"/><path class="cls-2" d="M311.66,73.56l1.07-.11a.8.8,0,0,1,.16,1.59h0l-1.06.1h0a.8.8,0,0,1-.16-1.59Z"/><path class="cls-2" d="M318.09,73.06l1.07,0a.8.8,0,1,1,.07,1.61h0l-1.06,0h0a.8.8,0,0,1-.07-1.61Z"/><path class="cls-2" d="M324.54,72.91h1.08a.81.81,0,1,1,0,1.62h-1.08a.81.81,0,0,1,0-1.62Z"/><path class="cls-2" d="M331,73.12l1.07.07a.82.82,0,1,1-.11,1.63h0l-1.06-.07h0a.82.82,0,0,1,.11-1.63Z"/><path class="cls-2" d="M337.41,73.72l1.07.13a.82.82,0,1,1-.21,1.63h0l-1.05-.13h0a.82.82,0,0,1,.21-1.63Z"/><path class="cls-2" d="M343.79,74.67l1.06.19a.82.82,0,0,1-.29,1.62h0l-1-.19h0a.82.82,0,0,1,.29-1.62Z"/><path class="cls-2" d="M350.11,75.94l1,.25a.83.83,0,0,1-.38,1.61h0l-1-.24h0a.83.83,0,0,1,.38-1.61Z"/><path class="cls-2" d="M356.36,77.55l1,.3a.83.83,0,1,1-.47,1.59h0l-1-.3h0a.83.83,0,0,1,.47-1.59Z"/><path class="cls-2" d="M362.51,79.5l1,.36a.83.83,0,1,1-.55,1.57h0l-1-.35h0a.83.83,0,0,1,.55-1.57Z"/><path class="cls-2" d="M368.54,81.79l1,.41a.83.83,0,1,1-.64,1.54h0l-1-.41h0a.83.83,0,0,1,.64-1.54Z"/><path class="cls-2" d="M374.44,84.4l1,.47a.84.84,0,1,1-.72,1.51h0l-1-.46h0a.84.84,0,0,1,.73-1.51Z"/><path class="cls-2" d="M380.19,87.32l.94.52a.84.84,0,1,1-.81,1.47h0l-.93-.51h0a.84.84,0,0,1,.81-1.47Z"/><path class="cls-2" d="M385.79,90.53l.92.56a.84.84,0,0,1-.88,1.44h0l-.9-.56h0a.84.84,0,0,1,.88-1.43Z"/><path class="cls-2" d="M391.21,94l.89.61a.85.85,0,0,1-1,1.4h0l-.88-.6h0a.84.84,0,0,1,1-1.39Z"/><path class="cls-2" d="M396.46,97.75l.86.65a.85.85,0,1,1-1,1.36h0l-.85-.64h0a.85.85,0,0,1,1-1.35Z"/><path class="cls-2" d="M401.54,101.71l.83.68a.85.85,0,0,1-1.08,1.32h0l-.82-.67h0a.85.85,0,0,1,1.08-1.31Z"/><path class="cls-2" d="M406.46,105.87l.8.71a.85.85,0,1,1-1.13,1.28h0l-.8-.7h0a.85.85,0,0,1,1.13-1.28Z"/><path class="cls-2" d="M411.21,110.21l.78.74a.86.86,0,1,1-1.18,1.24h0l-.77-.73h0a.86.86,0,0,1,1.18-1.24Z"/><path class="cls-2" d="M415.82,114.7l.75.76a.86.86,0,1,1-1.22,1.21h0l-.75-.76h0a.86.86,0,0,1,1.22-1.21Z"/><path class="cls-2" d="M420.29,119.32l.73.78a.86.86,0,1,1-1.26,1.18h0l-.73-.78h0a.86.86,0,0,1,1.26-1.18Z"/><path class="cls-2" d="M424.64,124.05l.71.8a.86.86,0,1,1-1.29,1.15h0l-.71-.79h0a.86.86,0,0,1,1.29-1.15Z"/><path class="cls-2" d="M428.89,128.87l.7.81a.87.87,0,1,1-1.31,1.13h0l-.69-.81a.87.87,0,1,1,1.31-1.13Z"/><path class="cls-2" d="M433,133.76l.69.82a.87.87,0,0,1-1.33,1.11h0l-.68-.82a.87.87,0,1,1,1.33-1.11Z"/><path class="cls-2" d="M437.14,138.7l.68.83a.87.87,0,0,1-1.35,1.1h0l-.68-.83a.87.87,0,1,1,1.35-1.1Z"/><path class="cls-2" d="M441.19,143.68l.67.83a.87.87,0,1,1-1.36,1.1h0l-.67-.83a.87.87,0,0,1,1.36-1.1Z"/><path class="cls-2" d="M445.21,148.66l.67.83a.88.88,0,0,1-1.36,1.1h0l-.67-.83a.88.88,0,0,1,1.36-1.1Z"/><path class="cls-2" d="M449.24,153.64l.67.83a.88.88,0,0,1-1.36,1.11h0l-.68-.83a.88.88,0,1,1,1.36-1.11Z"/><path class="cls-2" d="M453.31,158.58l.68.82a.88.88,0,0,1-1.35,1.13h0l-.69-.82a.88.88,0,1,1,1.35-1.13Z"/><path class="cls-2" d="M457.44,163.45l.7.8h0a.88.88,0,0,1-1.33,1.16h0l-.7-.81a.88.88,0,0,1,1.34-1.16Z"/><path class="cls-2" d="M461.69,168.21l.72.78h0a.89.89,0,0,1-1.3,1.2h0l-.73-.79a.89.89,0,1,1,1.3-1.2Z"/><path class="cls-2" d="M466.08,172.82l.75.75h0a.89.89,0,0,1-1.26,1.26h0l-.76-.76a.89.89,0,0,1,1.26-1.26Z"/><path class="cls-2" d="M470.69,177.2l.79.7h0a.89.89,0,1,1-1.18,1.34h0l-.81-.72a.89.89,0,0,1,1.18-1.33Z"/><path class="cls-2" d="M475.56,181.26l.84.64h0a.9.9,0,0,1-1.08,1.43h0l-.86-.65a.89.89,0,0,1,1.08-1.43Z"/><path class="cls-2" d="M480.75,184.85l.9.54h0a.9.9,0,1,1-.93,1.54h0l-.93-.56a.9.9,0,1,1,.93-1.54Z"/><path class="cls-2" d="M486.3,187.8l1,.42h0a.9.9,0,0,1-.72,1.65h0l-1-.43a.9.9,0,1,1,.72-1.65Z"/><path class="cls-2" d="M492.19,189.91l1,.25h0a.9.9,0,0,1-.44,1.75h0l-1.06-.27a.9.9,0,0,1,.44-1.75Z"/><path class="cls-2" d="M498.33,191l1,.07h0a.91.91,0,0,1-.13,1.81h0l-1.09-.08a.91.91,0,0,1,.13-1.81Z"/><path class="cls-2" d="M504.46,190.82l1-.23h.06a.91.91,0,1,1,.42,1.77h0l-1.1.26a.91.91,0,0,1-.42-1.77Z"/><path class="cls-2" d="M510,188.5l.84-.58,0,0a.91.91,0,1,1,1,1.5h0L511,190a.91.91,0,0,1-1-1.5Z"/><path class="cls-2" d="M514.58,184.42l.64-.8,0,0a.91.91,0,0,1,1.42,1.15h0l-.7.86a.91.91,0,1,1-1.42-1.15Z"/><path class="cls-2" d="M517.93,179.24l.43-.94,0,0A.92.92,0,0,1,520,179h0l-.46,1a.92.92,0,1,1-1.66-.77Z"/><path class="cls-2" d="M520,173.41l.2-1v0a.91.91,0,0,1,1.78.34l-.21,1.09a.91.91,0,0,1-1.79-.34h0Z"/><path class="cls-2" d="M520.45,167.27l0-1v0a.89.89,0,0,1,1.78-.09l.06,1.09a.9.9,0,1,1-1.79.09h0Z"/><path class="cls-2" d="M519.88,161l-.15-1h0a.85.85,0,0,1,1.69-.26l.17,1.07a.86.86,0,0,1-1.7.27h0Z"/><path class="cls-2" d="M518.79,154.74l-.21-1h0a.8.8,0,0,1,1.57-.34l.24,1a.82.82,0,1,1-1.59.37v0Z"/><path class="cls-2" d="M517.37,148.53l-.27-1h0a.72.72,0,0,1,1.39-.38l.3,1a.73.73,0,1,1-1.41.41h0Z"/><path class="cls-2" d="M515.62,142.41l-.33-1h0a.64.64,0,0,1,1.21-.41l.36,1a.65.65,0,0,1-1.23.43h0Z"/><path class="cls-2" d="M513.54,136.39l-.39-1h0a.51.51,0,0,1,.94-.4l.44,1a.54.54,0,1,1-1,.43v0Z"/><path class="cls-2" d="M510.92,130.61l-.52-.92h0a.36.36,0,0,1,.62-.37l.58.91a.39.39,0,0,1-.66.42v0Z"/><polygon class="cls-91" points="510.38 117.39 505.49 125.27 502.25 118.57 510.38 117.39"/><path class="cls-2" d="M477.76,90.89l9.69,31.86a2.35,2.35,0,0,0,3,1.53l31.62-10.94a.94.94,0,0,0,.09-1.74Z"/><polygon class="cls-91" points="510.37 117.39 477.76 90.89 505.27 119.17 504.01 121.41 510.37 117.39"/><polygon class="cls-91" points="502.24 120.2 505.49 125.27 505.27 119.17 502.24 120.2"/><polygon class="cls-91" points="147.04 159.36 147.93 165.92 151.99 162.5 147.04 159.36"/><path class="cls-2" d="M176,151.58l-15.6,18a1.68,1.68,0,0,1-2.41.12l-17.44-16.35a.67.67,0,0,1,.45-1.16Z"/><polygon class="cls-91" points="147.04 159.36 176.03 151.58 149.85 162.01 150.02 163.84 147.04 159.36"/><polygon class="cls-91" points="151.52 163.56 147.93 165.92 149.85 162.01 151.52 163.56"/></g></g></svg>